<?xml version="1.0" standalone="no"?>
<!DOCTYPE svg PUBLIC "-//W3C//DTD SVG 20010904//EN"
 "http://www.w3.org/TR/2001/REC-SVG-20010904/DTD/svg10.dtd">
<svg version="1.0" xmlns="http://www.w3.org/2000/svg"
 width="359.000000pt" height="359.000000pt" viewBox="0 0 359.000000 359.000000"
 preserveAspectRatio="xMidYMid meet">
<metadata>
Created by potrace 1.14, written by Peter Selinger 2001-2017
</metadata>
<g transform="translate(0.000000,359.000000) scale(0.100000,-0.100000)"
fill="#000000" stroke="none">
<path d="M527 3583 c-4 -3 -7 -21 -7 -40 0 -33 0 -33 -47 -33 -27 0 -82 5
-123 11 -122 17 -214 26 -231 21 -29 -7 -38 -45 -29 -113 5 -38 5 -222 0 -454
-10 -387 -13 -437 -30 -505 -5 -19 -10 -75 -12 -124 -2 -86 -2 -89 22 -98 14
-6 54 -9 90 -8 133 4 353 -10 361 -22 6 -9 0 -98 -6 -106 -1 -1 -118 -3 -259
-2 -221 0 -256 -2 -256 -15 0 -17 30 -19 327 -17 180 1 191 -1 196 -18 3 -11
6 -80 6 -154 l2 -135 -38 -16 c-21 -9 -81 -30 -133 -47 -52 -17 -127 -46 -166
-64 -39 -19 -75 -34 -81 -34 -5 0 -33 -7 -61 -15 -39 -12 -52 -20 -52 -35 0
-17 5 -19 33 -13 17 3 37 9 42 13 6 4 28 13 50 20 21 7 60 23 85 36 25 13 64
27 85 33 22 5 90 28 150 50 61 22 180 65 265 96 85 31 178 67 207 80 28 14 58
25 66 25 20 0 87 29 119 51 14 11 32 19 40 19 8 0 43 11 79 25 35 14 85 27
110 30 25 2 61 12 80 22 37 21 225 82 274 90 17 3 54 16 82 29 29 13 65 26 80
30 16 4 33 11 39 15 6 5 19 10 30 12 57 11 136 37 450 145 l201 70 43 -19 c60
-27 79 -24 188 27 82 39 148 64 197 76 6 1 45 19 87 40 43 21 90 41 105 44 16
4 46 15 68 25 22 10 74 31 115 47 41 16 84 33 95 37 11 5 43 16 70 25 47 15
50 18 53 53 2 22 -1 37 -8 37 -5 0 -59 -18 -118 -40 -59 -23 -114 -42 -122
-44 -8 -3 -36 -13 -62 -25 -26 -11 -76 -29 -110 -40 -35 -11 -83 -27 -107 -36
-24 -9 -45 -14 -47 -12 -3 2 -6 292 -4 435 0 49 3 49 85 12 47 -21 135 -54
185 -69 19 -6 94 -29 165 -51 72 -22 134 -40 138 -40 4 0 7 21 5 47 -3 49 -8
53 -76 55 -17 0 -20 3 -12 13 7 8 26 12 50 9 56 -5 54 21 -2 36 -97 26 -342
112 -468 165 -187 79 -349 159 -525 259 -82 47 -156 86 -165 86 -9 0 -21 -5
-28 -12 -9 -9 -12 -9 -12 0 0 9 -30 12 -106 12 -103 0 -105 -1 -85 -17 18 -16
33 -70 32 -118 -5 -210 -5 -220 18 -223 16 -3 21 -10 21 -33 0 -19 -5 -29 -15
-29 -12 0 -15 -19 -16 -107 -2 -230 -8 -346 -16 -354 -5 -5 -191 -10 -414 -11
l-404 -3 -2 370 c-1 204 -2 405 -2 448 -1 61 -4 77 -16 77 -8 0 -15 -1 -15 -2
0 -2 -3 -338 -6 -748 -3 -410 -7 -754 -9 -765 -5 -21 -63 -50 -125 -60 -34 -6
-36 -4 -62 44 -23 41 -38 55 -84 77 -44 21 -65 25 -99 21 -109 -15 -228 -85
-220 -130 9 -46 31 -69 93 -98 35 -17 62 -33 59 -35 -2 -2 -42 -17 -88 -34
-46 -16 -115 -40 -153 -55 -38 -14 -70 -24 -71 -23 -1 2 -5 103 -8 225 l-6
223 282 -4 c155 -2 290 -7 299 -11 13 -5 23 2 37 26 19 32 20 46 16 249 -3
136 -1 229 6 251 6 19 9 81 8 139 -1 58 -1 125 -1 150 6 427 6 460 -6 472 -13
13 -276 13 -297 0 -12 -7 -314 -4 -327 4 -4 3 -8 23 -8 45 0 37 -15 51 -33 32z
m1891 -31 c2 -7 -5 -12 -16 -12 -11 0 -22 8 -25 19 -4 16 -1 18 16 12 12 -4
23 -13 25 -19z m3 -148 c125 -73 159 -91 298 -155 52 -24 109 -54 126 -65 18
-12 50 -27 71 -34 22 -7 45 -17 52 -23 9 -7 12 -72 12 -262 0 -232 -1 -253
-17 -258 -10 -3 -171 -58 -358 -122 -187 -64 -348 -119 -357 -122 -17 -5 -18
18 -18 380 0 378 0 385 21 398 18 12 20 20 14 66 -6 38 -12 53 -26 56 -17 5
-19 16 -19 137 l0 131 43 -30 c24 -16 95 -60 158 -97z m-41 116 c0 -5 -2 -10
-4 -10 -3 0 -8 5 -11 10 -3 6 -1 10 4 10 6 0 11 -4 11 -10z m50 -10 c0 -5 -10
-10 -22 -10 -19 0 -20 2 -8 10 19 13 30 13 30 0z m58 2 c8 -6 2 -9 -17 -9 -17
0 -28 4 -25 9 7 10 25 10 42 0z m-2193 -21 c204 -20 460 -27 712 -18 l152 5 7
-92 c5 -50 6 -95 5 -101 -4 -10 -22 -506 -23 -635 -1 -36 1 -128 4 -205 3 -77
2 -149 -2 -160 -7 -20 -16 -20 -376 -18 -203 1 -436 4 -519 6 l-150 4 0 109
c1 60 4 147 9 194 7 78 14 427 15 725 1 66 -3 137 -8 157 -5 20 -6 39 -3 42 3
3 21 4 41 1 20 -2 81 -9 136 -14z m2214 -14 c9 4 6 -3 -8 -15 -13 -12 -24 -22
-25 -22 -1 0 -2 12 -3 26 -1 18 2 23 9 16 6 -6 18 -8 27 -5z m51 -2 c10 -12
10 -15 -3 -15 -8 0 -17 7 -21 15 -3 8 -2 15 3 15 5 0 14 -7 21 -15z m81 -42
c54 -29 69 -54 17 -27 -37 19 -85 54 -73 54 4 0 29 -12 56 -27z m-72 -25 c11
-29 9 -31 -22 -17 -20 9 -23 14 -14 25 17 19 27 17 36 -8z m276 -77 c117 -55
118 -55 123 -69 6 -18 -20 -14 -48 8 -14 11 -33 20 -42 20 -17 0 -64 24 -125
64 -34 22 -46 43 -15 28 9 -5 58 -28 107 -51z m-200 19 c3 -5 2 -10 -4 -10 -5
0 -13 5 -16 10 -3 6 -2 10 4 10 5 0 13 -4 16 -10z m130 -70 c3 -6 -1 -7 -9 -4
-18 7 -21 14 -7 14 6 0 13 -4 16 -10z m45 -20 c0 -5 -5 -10 -11 -10 -5 0 -7 5
-4 10 3 6 8 10 11 10 2 0 4 -4 4 -10z m170 -30 c0 -5 -2 -10 -4 -10 -3 0 -8 5
-11 10 -3 6 -1 10 4 10 6 0 11 -4 11 -10z m123 -21 c29 -12 75 -32 102 -44 68
-31 88 -38 102 -36 6 1 14 -3 18 -9 3 -5 15 -10 25 -10 24 0 31 -12 15 -27
-10 -9 -17 -7 -34 8 -11 11 -21 17 -21 14 0 -3 -6 -3 -12 2 -7 4 -20 9 -29 10
-9 1 -29 8 -45 14 -16 7 -32 12 -36 11 -5 -1 -8 3 -8 9 0 5 -4 8 -8 5 -5 -3
-21 2 -36 10 -16 7 -29 14 -30 14 0 0 -1 -11 -1 -24 0 -13 5 -22 11 -19 12 4
30 -15 22 -23 -9 -9 -64 17 -76 36 -7 12 -8 20 -2 20 5 0 10 -4 10 -8 0 -5 7
-9 14 -9 18 0 9 20 -24 55 -26 27 -22 27 43 1z m-108 -29 c3 -5 2 -10 -4 -10
-5 0 -13 5 -16 10 -3 6 -2 10 4 10 5 0 13 -4 16 -10z m246 -83 c-13 -13 -26
-3 -16 12 3 6 11 8 17 5 6 -4 6 -10 -1 -17z m232 -24 c9 -5 -11 -33 -24 -33
-5 0 -9 5 -9 11 0 5 5 7 12 3 7 -5 8 -3 3 5 -5 9 -10 10 -18 2 -6 -6 -20 -11
-31 -10 -21 0 -21 0 -1 9 19 8 19 9 -3 9 -14 1 -21 5 -16 12 6 10 67 5 87 -8z
m-112 -13 c4 0 6 -6 3 -14 -5 -12 -11 -13 -30 -4 -25 12 -23 33 3 24 8 -3 19
-6 24 -6z m-1181 -549 l0 -169 -128 -41 c-70 -22 -134 -41 -142 -41 -9 0 -24
-6 -35 -14 -11 -7 -36 -17 -55 -21 -19 -4 -45 -14 -58 -22 -35 -22 -402 -136
-410 -128 -7 7 -5 575 2 582 3 4 176 8 383 10 208 3 382 5 387 7 5 1 19 3 32
4 l24 2 0 -169z m985 129 c-53 -24 -70 -24 -25 0 19 11 42 19 50 19 8 0 -3 -9
-25 -19z m-154 -66 c-29 -13 -59 -24 -65 -24 -6 0 -22 -6 -36 -13 -14 -7 -47
-21 -75 -31 -27 -10 -64 -27 -80 -37 -30 -18 -158 -27 -139 -10 17 16 183 63
195 55 7 -4 10 -3 6 3 -3 5 40 25 96 44 120 42 181 49 98 13z m-2025 -459 c16
-8 36 -15 46 -15 20 0 68 -55 68 -79 0 -45 -104 -98 -173 -87 -88 14 -167 69
-167 116 0 14 41 38 101 60 66 23 88 24 125 5z"/>
<path d="M459 3274 c-1 -8 0 -176 1 -198 0 -5 8 -2 18 7 37 33 214 10 229 -30
11 -29 -14 -60 -54 -67 -100 -18 -175 -78 -171 -138 0 -13 -2 -39 -6 -59 -5
-23 -4 -39 3 -43 6 -4 48 -2 93 4 46 6 97 12 113 13 25 2 30 7 31 31 1 28 17
45 44 47 62 3 108 27 142 71 42 56 49 90 32 155 -39 152 -120 199 -356 210
-66 3 -118 2 -119 -3z m266 -39 c118 -31 171 -91 181 -208 4 -41 1 -59 -15
-85 -25 -39 -70 -68 -120 -76 -42 -6 -91 -40 -91 -61 0 -14 -39 -22 -130 -27
-40 -3 -45 -1 -42 17 2 11 5 38 6 61 2 22 6 46 10 52 8 13 78 46 121 56 77 18
85 25 85 75 0 47 0 47 -47 64 -30 11 -78 17 -125 17 l-76 0 -4 58 c-6 88 -8
86 96 79 50 -4 118 -14 151 -22z"/>
<path d="M510 2661 c-47 -29 -70 -64 -70 -105 0 -30 15 -42 73 -58 42 -11 54
-10 119 11 107 35 135 81 81 133 -28 27 -44 32 -118 42 -32 4 -49 0 -85 -23z
m157 -16 c70 -29 58 -84 -21 -104 -112 -28 -185 -4 -172 56 6 24 17 36 49 52
45 21 83 20 144 -4z"/>
<path d="M3095 3190 c3 -5 8 -10 11 -10 2 0 4 5 4 10 0 6 -5 10 -11 10 -5 0
-7 -4 -4 -10z"/>
<path d="M1039 1852 c-56 -27 -109 -71 -109 -92 0 -11 10 -26 23 -34 29 -19
92 -30 109 -20 7 5 33 16 57 24 24 9 49 23 55 32 13 22 -8 68 -34 75 -11 3
-20 12 -20 19 0 19 -36 17 -81 -4z m89 -56 c12 -12 12 -15 -4 -24 -11 -6 -40
-13 -65 -17 -35 -5 -48 -3 -58 9 -8 9 -12 18 -10 20 51 39 105 44 137 12z"/>
<path d="M2078 1686 c-61 -16 -93 -38 -122 -84 -43 -69 -63 -125 -59 -169 l4
-41 -108 3 c-59 2 -290 6 -513 9 -223 4 -420 9 -438 12 -18 3 -102 7 -185 10
-84 2 -165 8 -182 14 -28 8 -55 12 -200 26 -77 7 -158 24 -180 39 -11 7 -37
14 -58 17 l-37 4 1 -241 c1 -168 5 -242 13 -247 8 -6 8 -8 -1 -8 -8 0 -13 -15
-13 -40 0 -22 4 -40 9 -40 5 0 7 10 4 23 -4 20 -3 20 7 4 9 -15 9 -22 -4 -36
-18 -20 -21 -141 -4 -141 7 0 7 -4 0 -12 -12 -15 -14 -220 -2 -213 5 3 6 -5 2
-17 -5 -19 -3 -21 9 -11 20 17 58 5 86 -26 26 -30 28 -44 9 -60 -11 -9 -15 -7
-19 8 -3 14 -1 18 9 14 18 -7 18 11 0 26 -10 8 -16 9 -21 1 -3 -5 -11 -10 -16
-10 -6 0 -8 3 -5 8 2 4 -3 16 -11 27 -11 14 -17 16 -20 8 -3 -7 -10 -13 -17
-13 -6 0 -12 -9 -12 -19 0 -11 3 -18 6 -16 3 2 12 0 20 -6 12 -7 11 -9 -6 -9
-18 0 -21 -6 -20 -45 1 -32 5 -44 14 -40 8 3 7 -4 -4 -20 -10 -15 -12 -25 -5
-25 6 0 11 -5 11 -11 0 -5 -4 -7 -10 -4 -5 3 -10 1 -10 -4 0 -11 13 -15 37
-12 6 1 10 -9 9 -21 -3 -30 -24 -68 -36 -68 -6 0 -10 -14 -10 -30 0 -28 2 -30
22 -19 18 10 20 9 15 -6 -4 -9 -7 -18 -7 -21 0 -2 -8 -1 -17 2 -15 5 -15 4 -4
-4 12 -9 12 -13 2 -26 -8 -9 -9 -16 -3 -16 6 0 12 6 15 13 2 6 8 9 13 4 4 -4
-2 -15 -15 -23 -18 -13 -20 -18 -9 -32 11 -12 11 -16 -1 -20 -10 -3 -7 -9 10
-19 23 -13 23 -14 2 -8 -17 5 -23 2 -23 -9 0 -12 11 -14 53 -12 64 3 80 11 72
37 -4 11 -2 19 4 19 6 0 11 -5 11 -11 0 -40 97 -62 133 -30 17 14 20 14 31 -1
8 -11 26 -16 59 -16 26 1 47 5 47 10 0 4 -4 8 -10 8 -5 0 -10 6 -10 13 1 14
35 57 45 57 4 0 2 -6 -4 -14 -10 -12 -6 -14 23 -12 40 4 43 1 21 -20 -13 -14
-15 -14 -15 1 0 13 -4 14 -20 5 -15 -8 -20 -8 -20 2 0 9 -3 9 -12 0 -9 -9 -7
-16 6 -31 17 -18 30 -19 379 -14 199 4 387 5 417 3 30 -1 224 -3 430 -3 493 0
467 0 930 4 135 2 298 0 362 -5 l117 -7 14 33 c8 18 36 62 64 98 27 36 75 103
106 150 122 182 173 254 197 277 l25 23 3 -52 c2 -29 -1 -82 -7 -118 -7 -36
-13 -78 -15 -95 -2 -16 -7 -42 -11 -58 -11 -44 20 -34 49 16 23 39 24 47 16
117 -5 41 -9 111 -10 154 l0 79 56 74 c30 41 54 79 52 84 -4 11 -167 -193
-253 -316 -27 -38 -53 -71 -57 -73 -5 -2 -8 -8 -8 -13 0 -23 -74 -118 -94
-121 -16 -2 -21 -10 -21 -33 0 -20 -15 -48 -45 -87 -25 -31 -52 -66 -60 -76
-15 -20 -32 -21 -550 -28 -634 -10 -908 -11 -1165 -4 -104 3 -296 4 -425 2
-350 -5 -382 -4 -378 10 4 10 152 108 163 108 2 0 30 18 61 40 43 30 67 40 96
40 31 0 38 4 38 19 0 19 65 81 84 81 5 0 24 11 42 25 41 32 44 31 44 -4 0 -23
-8 -34 -36 -50 -35 -21 -42 -46 -11 -46 26 0 30 -12 17 -49 -14 -44 -8 -56 25
-48 14 4 69 4 123 0 53 -5 131 -7 172 -7 41 1 86 2 100 2 14 -1 106 3 205 8
99 5 361 12 583 14 l402 4 38 30 c35 28 42 29 129 29 l91 -1 47 59 c26 32 55
66 64 74 9 9 25 33 36 55 19 38 109 154 169 219 16 17 47 56 70 86 22 30 48
62 56 70 8 8 27 31 42 51 15 20 41 49 58 65 53 49 152 173 145 184 -3 5 -25 7
-52 3 -43 -6 -46 -5 -38 13 4 10 11 39 14 64 6 43 7 45 43 48 l38 3 -1 60 -1
59 -42 1 c-22 1 -47 1 -53 0 -7 -1 -27 14 -44 34 -21 24 -40 35 -59 35 -29 0
-62 -24 -73 -52 -5 -15 -16 -16 -79 -11 -40 3 -102 5 -138 4 -171 -5 -550 -7
-592 -3 -27 2 -46 7 -44 11 2 3 -27 5 -65 4 l-70 -2 5 62 c11 164 -116 290
-256 253z m134 -72 c54 -38 79 -85 86 -160 l5 -62 -52 -50 -52 -51 -75 1
c-107 0 -139 16 -169 83 -28 61 -32 117 -10 135 8 7 15 20 15 29 0 9 21 38 47
65 l47 48 58 -4 c44 -3 68 -12 100 -34z m-2108 -163 c15 -6 16 -10 7 -16 -8
-4 -16 -2 -21 5 -4 6 -10 11 -14 10 -4 -1 -12 1 -19 3 -6 3 -3 5 8 6 11 0 29
-4 39 -8z m89 -15 c9 0 17 -4 17 -8 0 -6 -26 -6 -72 1 -5 0 -8 6 -8 12 0 6 9
8 23 3 12 -4 30 -8 40 -8z m153 -15 c-5 -8 -116 -4 -125 5 -2 2 26 4 63 4 37
0 65 -4 62 -9z m474 -51 c8 -5 11 -10 5 -10 -5 0 -17 5 -25 10 -8 5 -10 10 -5
10 6 0 17 -5 25 -10z m2595 -17 c44 -44 68 -108 62 -164 -6 -49 -62 -152 -97
-176 -10 -7 -23 -25 -29 -41 -7 -16 -23 -34 -37 -41 -27 -12 -27 -12 -42 49
-5 20 -15 35 -23 35 -15 0 -15 -9 -1 -65 10 -38 -11 -94 -51 -137 -33 -37 -40
-28 -33 37 8 66 -8 85 -18 23 -14 -83 -31 -134 -48 -150 -14 -12 -42 -17 -121
-18 -92 -2 -107 -5 -144 -28 -23 -14 -44 -31 -48 -37 -3 -5 -13 -10 -21 -10
-11 0 -13 9 -8 38 4 28 -1 51 -20 92 -33 71 -33 80 4 80 16 0 33 6 37 14 9 16
68 47 75 40 3 -3 16 0 30 6 20 10 32 7 71 -14 50 -28 67 -32 67 -15 0 14 -48
57 -72 65 -9 3 -15 11 -12 19 5 11 20 13 71 8 57 -5 68 -4 80 13 13 18 15 18
62 1 27 -9 54 -17 60 -17 18 0 12 24 -9 38 -25 15 -26 31 -2 39 9 4 33 19 52
35 19 15 45 28 57 28 28 0 37 14 19 29 -10 9 -12 20 -6 41 4 16 6 30 4 33 -2
2 2 22 10 45 8 22 12 49 10 59 -7 25 12 73 29 73 8 0 27 -12 42 -27z m-2311 2
c-4 -8 -11 -15 -16 -15 -6 0 -5 6 2 15 7 8 14 15 16 15 2 0 1 -7 -2 -15z m60
-1 c24 -24 19 -30 -6 -8 -13 10 -25 20 -27 21 -2 2 1 3 7 3 6 0 18 -7 26 -16z
m421 6 c19 -8 19 -9 -2 -9 -12 -1 -25 4 -28 9 -7 12 2 12 30 0z m-1200 -14
c-11 -8 -24 -12 -29 -8 -5 3 -1 9 10 13 31 12 39 10 19 -5z m45 11 c0 -2 -10
-12 -22 -23 l-23 -19 19 23 c18 21 26 27 26 19z m1321 -14 c12 -15 12 -16 -1
-8 -8 5 -24 8 -35 7 -17 -2 -17 -1 -5 7 20 14 25 14 41 -6z m57 3 c-7 -7 -19
-11 -25 -9 -22 9 -14 23 12 23 21 0 24 -2 13 -14z m77 4 c-3 -5 -11 -10 -16
-10 -6 0 -7 5 -4 10 3 6 11 10 16 10 6 0 7 -4 4 -10z m-365 -14 c0 -3 -4 -8
-10 -11 -5 -3 -10 -1 -10 4 0 6 5 11 10 11 6 0 10 -2 10 -4z m90 -11 c-7 -8
-17 -15 -22 -15 -11 0 14 29 26 30 5 0 3 -7 -4 -15z m750 5 c3 -1 -4 -5 -15
-9 -22 -9 -38 -4 -30 9 4 7 22 7 45 0z m-2310 -4 c0 -2 -6 -9 -14 -15 -11 -9
-16 -9 -22 0 -4 7 -3 9 4 5 6 -3 13 -2 17 4 6 10 15 14 15 6z m150 0 c0 -3 -4
-8 -10 -11 -5 -3 -10 -1 -10 4 0 6 5 11 10 11 6 0 10 -2 10 -4z m670 -5 c0 -5
-10 -11 -22 -14 -22 -6 -22 -6 -4 8 23 17 26 18 26 6z m100 -1 c0 -5 -2 -10
-4 -10 -3 0 -8 5 -11 10 -3 6 -1 10 4 10 6 0 11 -4 11 -10z m150 6 c0 -3 -4
-8 -10 -11 -5 -3 -10 -1 -10 4 0 6 5 11 10 11 6 0 10 -2 10 -4z m21 -23 c-12
-20 -14 -14 -5 12 4 9 9 14 11 11 3 -2 0 -13 -6 -23z m2016 15 c7 -5 14 -5 17
1 4 6 14 7 22 4 9 -3 28 -7 43 -8 14 -1 36 -3 49 -3 12 -1 22 -6 22 -10 0 -10
-46 -10 -55 0 -4 4 -17 3 -29 -2 -13 -4 -29 -4 -39 1 -11 7 -17 6 -17 -1 0 -6
-12 -3 -27 7 -24 16 -26 16 -21 2 5 -13 2 -16 -14 -11 -14 3 -19 1 -14 -6 10
-16 -3 -15 -34 3 -28 16 -54 20 -30 5 13 -8 13 -10 -2 -10 -9 0 -20 5 -23 10
-5 8 -11 8 -19 1 -8 -7 -16 -7 -22 -1 -6 6 -20 4 -38 -5 -16 -9 -31 -13 -34
-10 -3 3 1 5 8 5 7 0 10 3 7 6 -4 4 -13 1 -22 -6 -10 -8 -15 -9 -15 -1 0 6 -5
11 -11 11 -5 0 -7 -4 -4 -10 9 -14 -2 -12 -29 5 -21 14 -24 14 -36 0 -16 -19
-31 -19 -24 0 5 11 2 13 -10 9 -9 -3 -16 -1 -16 5 0 9 36 11 125 10 69 -1 128
0 131 4 9 9 148 5 161 -5z m-2437 -2 c0 -11 -19 -15 -25 -6 -3 5 1 10 9 10 9
0 16 -2 16 -4z m27 -25 c0 -25 -2 -27 -15 -15 -11 12 -11 18 -2 29 16 20 17
20 17 -14z m1533 16 c0 -19 -27 -53 -36 -44 -8 8 15 57 28 57 4 0 8 -6 8 -13z
m305 3 c3 -5 2 -10 -4 -10 -5 0 -13 5 -16 10 -3 6 -2 10 4 10 5 0 13 -4 16
-10z m972 -3 c2 -3 -8 -4 -22 -4 -14 0 -25 3 -25 8 0 7 38 4 47 -4z m-3342 -7
c-3 -5 -11 -10 -16 -10 -6 0 -7 5 -4 10 3 6 11 10 16 10 6 0 7 -4 4 -10z m130
-10 c-10 -11 -22 -20 -28 -20 -5 0 1 9 14 20 31 25 37 25 14 0z m1045 16 c0
-2 -7 -6 -15 -10 -8 -3 -15 -1 -15 4 0 6 7 10 15 10 8 0 15 -2 15 -4z m1270
-11 c7 -8 9 -15 6 -15 -4 0 -14 7 -22 15 -9 8 -11 15 -6 15 5 0 15 -7 22 -15z
m-2038 -12 c-6 -2 -10 -9 -6 -14 3 -5 0 -9 -5 -9 -12 0 -14 13 -4 23 3 4 11 7
17 6 6 0 5 -3 -2 -6z m318 -10 c0 -10 -4 -14 -8 -8 -4 6 -11 13 -16 18 -5 4
-2 7 7 7 10 0 17 -8 17 -17z m30 2 c0 -8 -4 -15 -10 -15 -5 0 -10 7 -10 15 0
8 5 15 10 15 6 0 10 -7 10 -15z m45 -24 c-6 -5 -25 10 -25 20 0 5 6 4 14 -3 8
-7 12 -15 11 -17z m25 19 c0 -5 -2 -10 -4 -10 -3 0 -8 5 -11 10 -3 6 -1 10 4
10 6 0 11 -4 11 -10z m285 0 c3 -5 1 -10 -4 -10 -6 0 -11 5 -11 10 0 6 2 10 4
10 3 0 8 -4 11 -10z m595 0 c0 -5 -5 -10 -11 -10 -5 0 -7 5 -4 10 3 6 8 10 11
10 2 0 4 -4 4 -10z m577 -37 c45 -50 57 -75 51 -114 -4 -32 -21 -34 -55 -5
-16 13 -45 27 -65 31 -43 8 -49 19 -42 76 7 55 10 59 41 59 18 0 39 -14 70
-47z m-1987 13 c14 -18 14 -18 -7 -6 -12 8 -19 18 -16 23 3 4 6 7 7 5 1 -2 8
-12 16 -22z m47 3 c7 -3 4 -13 -9 -29 -20 -25 -21 -25 -14 -2 5 14 3 30 -6 40
-11 15 -11 15 2 6 8 -6 20 -13 27 -15z m113 -4 c-7 -9 -15 -13 -17 -11 -6 6
20 36 26 30 2 -2 -2 -10 -9 -19z m1448 11 c82 -1 106 -11 97 -40 -2 -6 -6 -23
-9 -38 -9 -38 -64 -65 -146 -71 -14 -1 -42 6 -63 17 -32 16 -37 22 -32 40 4
12 10 41 12 64 5 42 6 44 32 37 14 -5 63 -8 109 -9z m-1327 -10 c11 7 44 -24
35 -34 -4 -3 -11 0 -17 8 -8 13 -10 13 -18 1 -8 -12 -11 -12 -24 1 -12 12 -13
18 -4 27 8 8 13 8 15 1 2 -5 8 -8 13 -4z m324 4 c-3 -5 -23 -9 -43 -9 l-37 2
35 7 c52 11 52 11 45 0z m1666 -6 c4 -2 121 -6 260 -9 139 -3 254 -7 256 -9
11 -11 -21 -87 -43 -105 -25 -20 -36 -20 -317 -16 -161 3 -304 7 -318 10 -21
5 -28 13 -33 43 -3 21 -15 48 -26 59 -36 39 -27 43 97 37 64 -3 120 -7 124
-10z m-1819 -32 c-6 -2 -12 -11 -12 -19 0 -14 3 -14 20 2 11 10 20 13 20 8 0
-14 -62 -43 -75 -35 -6 4 -3 8 8 10 17 3 22 18 19 55 -2 18 -1 18 15 1 13 -12
14 -19 5 -22z m-555 3 c0 -8 -6 -16 -14 -19 -7 -3 -13 1 -13 8 0 8 6 17 13 19
6 3 12 6 13 6 0 1 1 -6 1 -14z m183 10 c0 -2 -10 -10 -22 -16 -21 -11 -22 -11
-9 4 13 16 31 23 31 12z m435 -5 c3 -6 -1 -7 -9 -4 -18 7 -21 14 -7 14 6 0 13
-4 16 -10z m1335 -35 c0 -39 -3 -45 -25 -51 -62 -15 -83 27 -35 68 48 40 60
37 60 -17z m-1920 31 c0 -3 -4 -8 -10 -11 -5 -3 -10 -1 -10 4 0 6 5 11 10 11
6 0 10 -2 10 -4z m45 -35 c-2 -2 -11 3 -19 12 -8 8 -12 17 -9 21 3 3 12 -2 19
-12 7 -9 11 -19 9 -21z m235 35 c0 -3 -7 -12 -16 -20 -23 -23 -40 -19 -19 4
16 18 35 26 35 16z m120 -25 c-6 -12 -15 -21 -21 -21 -5 0 -2 11 8 24 21 28
29 27 13 -3z m470 19 c0 -5 -5 -10 -11 -10 -5 0 -7 5 -4 10 3 6 8 10 11 10 2
0 4 -4 4 -10z m140 0 c0 -5 -5 -10 -11 -10 -5 0 -7 5 -4 10 3 6 8 10 11 10 2
0 4 -4 4 -10z m-70 -10 c0 -5 -2 -10 -4 -10 -3 0 -8 5 -11 10 -3 6 -1 10 4 10
6 0 11 -4 11 -10z m157 4 c-3 -3 -12 -4 -19 -1 -8 3 -5 6 6 6 11 1 17 -2 13
-5z m-748 -31 c26 -25 11 -23 -20 4 -9 7 -24 11 -33 7 -17 -7 -22 -24 -6 -24
6 0 10 5 10 10 0 6 5 10 10 10 15 0 12 -17 -5 -24 -26 -10 -46 3 -33 23 16 25
47 23 77 -6z m800 -7 c0 -7 -2 -6 -6 2 -2 6 -11 12 -19 12 -9 0 -12 5 -9 10 8
13 35 -6 34 -24z m341 19 c0 -8 -4 -15 -10 -15 -5 0 -7 7 -4 15 4 8 8 15 10
15 2 0 4 -7 4 -15z m-670 -1 c0 -3 -7 -12 -15 -21 -20 -19 -32 -10 -14 11 14
15 29 21 29 10z m115 -23 c-6 -5 -25 10 -25 20 0 5 6 4 14 -3 8 -7 12 -15 11
-17z m-505 -6 c14 -19 14 -19 -2 -6 -10 7 -18 18 -18 24 0 6 1 8 3 6 1 -2 9
-13 17 -24z m220 10 c7 -9 8 -15 2 -15 -5 0 -12 7 -16 15 -3 8 -4 15 -2 15 2
0 9 -7 16 -15z m217 0 c0 -8 -4 -15 -9 -15 -4 0 -8 7 -8 15 0 8 4 15 8 15 5 0
9 -7 9 -15z m-770 -1 c-3 -3 -12 -4 -19 -1 -8 3 -5 6 6 6 11 1 17 -2 13 -5z
m363 -4 c0 -5 -2 -10 -4 -10 -3 0 -8 5 -11 10 -3 6 -1 10 4 10 6 0 11 -4 11
-10z m160 0 c0 -5 -5 -10 -11 -10 -5 0 -7 5 -4 10 3 6 8 10 11 10 2 0 4 -4 4
-10z m285 0 c3 -5 -1 -10 -10 -10 -9 0 -13 5 -10 10 3 6 8 10 10 10 2 0 7 -4
10 -10z m-705 -4 c0 -3 -4 -8 -10 -11 -5 -3 -10 -1 -10 4 0 6 5 11 10 11 6 0
10 -2 10 -4z m1630 -54 c0 -11 8 -13 38 -7 76 14 131 8 163 -19 17 -14 39 -26
49 -26 20 0 28 -18 60 -135 12 -44 30 -99 41 -122 10 -24 19 -45 19 -49 0 -3
16 -37 35 -75 29 -57 33 -73 23 -88 -16 -26 8 -87 45 -115 l29 -21 19 24 c14
17 19 39 19 82 l0 59 39 0 c53 0 56 -19 14 -102 -40 -78 -67 -106 -85 -90 -53
42 -94 55 -180 54 l-87 -1 11 24 c9 19 6 38 -12 94 -23 74 -22 132 5 168 19
24 19 53 0 53 -8 0 -22 -18 -31 -40 -9 -22 -20 -40 -26 -40 -5 0 -7 48 -5 115
2 87 0 112 -9 104 -6 -5 -15 -49 -18 -97 -14 -171 -23 -182 -73 -86 -29 55
-37 62 -48 43 -14 -22 7 -78 44 -120 32 -36 44 -43 74 -43 33 0 36 -2 30 -20
-4 -12 -7 -34 -8 -51 0 -25 4 -30 23 -28 12 2 22 -3 22 -10 0 -29 -13 -57 -27
-57 -10 0 -12 6 -8 20 5 15 2 20 -10 20 -13 0 -16 -6 -13 -25 6 -28 17 -26
-187 -30 l-90 -2 -46 38 c-35 29 -48 36 -52 25 -3 -8 1 -20 9 -26 8 -7 14 -19
14 -26 0 -11 -20 -14 -89 -14 l-89 0 -36 49 c-20 27 -40 51 -44 53 -10 4 -79
148 -86 179 -3 15 1 50 10 78 18 62 13 92 -6 39 -8 -21 -17 -38 -21 -38 -12 0
-61 110 -55 125 3 9 -1 15 -9 15 -8 0 -17 -11 -21 -25 -6 -23 -1 -35 40 -110
22 -41 20 -67 -9 -125 -14 -27 -25 -62 -25 -77 0 -16 -6 -37 -13 -48 -23 -34
-28 -55 -13 -55 8 0 19 14 25 30 10 31 31 41 31 15 0 -8 -5 -26 -12 -40 -10
-22 -9 -28 2 -35 33 -20 6 -23 -180 -20 -77 2 -107 5 -92 11 14 5 22 17 22 31
0 28 33 83 57 96 10 6 24 32 31 59 8 26 18 59 24 73 28 68 65 198 73 255 12
89 66 135 157 135 61 0 82 -11 98 -50 21 -50 141 -99 208 -83 38 9 24 20 -33
27 -91 10 -145 41 -145 83 0 28 1 28 64 -1 28 -13 68 -26 88 -30 44 -8 136 16
168 44 18 15 26 17 46 8 13 -6 24 -18 24 -26z m-1640 -2 c0 -5 -5 -10 -11 -10
-5 0 -7 5 -4 10 3 6 8 10 11 10 2 0 4 -4 4 -10z m506 -5 c9 -8 11 -15 6 -15
-5 0 -15 7 -22 15 -7 8 -9 15 -6 15 4 0 14 -7 22 -15z m443 -7 c-9 -16 -14
-19 -17 -9 -2 7 2 17 9 22 20 13 21 11 8 -13z m-1349 1 c0 -15 -32 -18 -45 -5
-11 11 -9 13 16 12 16 -1 29 -4 29 -7z m483 -4 c4 -8 1 -17 -6 -21 -7 -4 -9
-4 -5 1 4 4 3 14 -3 22 -7 8 -8 13 -1 13 5 0 12 -7 15 -15z m287 6 c0 -6 -5
-13 -10 -16 -6 -4 -8 -11 -4 -16 3 -5 10 -6 16 -3 7 4 8 2 4 -4 -14 -22 17
-12 40 14 13 14 24 21 24 16 0 -5 -7 -15 -15 -22 -10 -8 -13 -21 -9 -39 6 -24
5 -25 -8 -7 -8 10 -21 17 -29 14 -8 -3 -18 4 -24 15 -5 11 -16 22 -24 25 -8 3
-11 0 -7 -7 4 -7 0 -11 -11 -11 -15 1 -13 5 10 25 29 26 47 32 47 16z m110
-12 c0 -4 -7 -6 -15 -3 -8 4 -15 10 -15 15 0 4 7 6 15 3 8 -4 15 -10 15 -15z
m206 -4 c-9 -9 -16 -13 -16 -8 0 5 5 14 12 21 6 6 14 10 16 7 2 -2 -3 -11 -12
-20z m-1226 -1 c0 -8 -5 -12 -10 -9 -6 4 -8 11 -5 16 9 14 15 11 15 -7z m70 6
c0 -5 -2 -10 -4 -10 -3 0 -8 5 -11 10 -3 6 -1 10 4 10 6 0 11 -4 11 -10z m273
-5 c-3 -9 -8 -14 -10 -11 -3 3 -2 9 2 15 9 16 15 13 8 -4z m917 -4 c-12 -24
-30 -36 -30 -22 0 6 5 11 10 11 6 0 10 7 10 15 0 8 5 15 10 15 7 0 7 -6 0 -19z
m1853 7 c-2 -5 -10 -8 -17 -8 -8 0 -20 -9 -27 -21 -17 -25 -76 -42 -150 -43
-50 -1 -60 -5 -98 -39 -22 -20 -48 -37 -56 -37 -8 0 -32 -9 -52 -20 -24 -13
-57 -20 -90 -20 -43 0 -53 3 -58 20 -4 11 -17 27 -30 36 -24 16 -52 101 -42
128 5 12 59 14 315 12 171 0 308 -4 305 -8z m335 -16 c-40 -50 -62 -76 -157
-179 -57 -62 -114 -127 -127 -144 -13 -18 -31 -39 -41 -49 -10 -9 -34 -37 -53
-60 -19 -24 -57 -70 -85 -101 -27 -32 -75 -92 -105 -134 -75 -105 -97 -123
-147 -126 -50 -4 -65 6 -32 21 13 6 33 23 43 37 16 21 17 29 7 45 -15 25 -6
38 22 30 19 -5 20 -3 9 10 -11 14 -9 24 12 66 14 28 34 53 45 57 11 3 37 20
58 37 21 17 55 41 76 54 22 14 37 32 37 43 0 12 9 23 23 27 39 12 121 93 138
137 12 31 24 43 46 49 29 7 65 39 87 76 53 89 78 117 109 123 41 7 51 1 35
-19z m-3176 -6 c4 -17 1 -23 -9 -19 -15 6 -15 6 -7 27 8 22 11 20 16 -8z m178
20 c0 -3 -4 -8 -10 -11 -5 -3 -10 -1 -10 4 0 6 5 11 10 11 6 0 10 -2 10 -4z
m340 -23 c0 -12 -3 -13 -14 -4 -10 8 -16 9 -21 1 -3 -5 -11 -10 -17 -10 -6 0
-3 8 8 19 21 20 44 17 44 -6z m330 18 c0 -5 -7 -12 -16 -15 -14 -5 -15 -4 -4
9 14 17 20 19 20 6z m-1147 -53 c6 -4 8 -11 3 -15 -5 -4 -11 -2 -13 5 -4 10
-8 10 -21 0 -15 -11 -15 -11 -5 2 7 10 8 21 3 30 -5 8 -6 18 -3 24 4 5 10 -1
15 -15 5 -13 14 -27 21 -31z m731 23 c-10 -10 -21 -17 -23 -15 -6 6 20 34 32
34 6 0 2 -8 -9 -19z m306 15 c0 -11 -19 -15 -25 -6 -3 5 1 10 9 10 9 0 16 -2
16 -4z m-680 -21 c7 -8 9 -15 6 -15 -4 0 -14 7 -22 15 -9 8 -11 15 -6 15 5 0
15 -7 22 -15z m90 11 c0 -9 -30 -14 -35 -6 -4 6 3 10 14 10 12 0 21 -2 21 -4z
m-362 -20 c-7 -8 -15 -12 -17 -11 -5 6 10 25 20 25 5 0 4 -6 -3 -14z m42 4 c0
-5 -4 -10 -10 -10 -5 0 -10 5 -10 10 0 6 5 10 10 10 6 0 10 -4 10 -10z m920 0
c-8 -5 -19 -10 -25 -10 -5 0 -3 5 5 10 8 5 20 10 25 10 6 0 3 -5 -5 -10z m50
6 c0 -3 -4 -8 -10 -11 -5 -3 -10 -1 -10 4 0 6 5 11 10 11 6 0 10 -2 10 -4z
m-665 -26 c-10 -11 -21 -17 -24 -14 -3 3 3 12 13 20 28 20 32 17 11 -6z m-385
0 c0 -5 -2 -10 -4 -10 -3 0 -8 5 -11 10 -3 6 -1 10 4 10 6 0 11 -4 11 -10z
m250 7 c0 -2 -14 -16 -32 -33 -28 -25 -26 -17 7 23 9 11 25 17 25 10z m40 -7
c0 -5 -4 -10 -10 -10 -5 0 -10 5 -10 10 0 6 5 10 10 10 6 0 10 -4 10 -10z
m149 1 c7 -5 9 -11 5 -14 -5 -3 -15 1 -22 9 -14 16 -5 18 17 5z m781 5 c0 -3
-4 -8 -10 -11 -5 -3 -10 -1 -10 4 0 6 5 11 10 11 6 0 10 -2 10 -4z m-160 -16
c0 -5 -2 -10 -4 -10 -3 0 -8 5 -11 10 -3 6 -1 10 4 10 6 0 11 -4 11 -10z
m-450 -14 c0 -3 -4 -8 -10 -11 -5 -3 -10 -1 -10 4 0 6 5 11 10 11 6 0 10 -2
10 -4z m410 -11 c-7 -9 -15 -13 -19 -10 -3 3 1 10 9 15 21 14 24 12 10 -5z
m-870 -16 c0 -11 -7 -27 -15 -35 -8 -9 -15 -11 -15 -5 0 5 5 13 10 16 6 3 10
11 10 18 0 8 -3 8 -12 -1 -20 -20 -32 -13 -13 8 23 26 35 25 35 -1z m200 11
c0 -5 -5 -10 -11 -10 -5 0 -7 5 -4 10 3 6 8 10 11 10 2 0 4 -4 4 -10z m40 0
c0 -5 -5 -10 -11 -10 -5 0 -7 5 -4 10 3 6 8 10 11 10 2 0 4 -4 4 -10z m670 0
c0 -5 -5 -10 -11 -10 -5 0 -7 5 -4 10 3 6 8 10 11 10 2 0 4 -4 4 -10z m-1084
-16 c-4 -9 -1 -23 5 -30 7 -9 8 -14 1 -14 -5 0 -12 7 -16 15 -5 15 2 45 11 45
3 0 2 -7 -1 -16z m332 -4 c-13 -20 -28 -27 -28 -12 0 10 22 32 32 32 5 0 3 -9
-4 -20z m502 10 c0 -5 -5 -10 -11 -10 -5 0 -7 5 -4 10 3 6 8 10 11 10 2 0 4
-4 4 -10z m583 -5 c-3 -9 -8 -14 -10 -11 -3 3 -2 9 2 15 9 16 15 13 8 -4z
m-1176 -19 c0 -7 -8 -18 -18 -24 -15 -10 -17 -9 -12 6 6 15 5 15 -10 3 -19
-15 -23 -7 -5 12 16 17 45 19 45 3z m1137 -1 c-4 -8 -11 -15 -16 -15 -6 0 -5
6 2 15 7 8 14 15 16 15 2 0 1 -7 -2 -15z m-911 -38 c-3 -4 -10 -3 -17 2 -7 6
-16 8 -19 4 -4 -3 -7 1 -7 9 0 13 4 14 24 5 13 -7 22 -15 19 -20z m257 13 c0
-5 -7 -10 -16 -10 -8 0 -12 5 -9 10 3 6 10 10 16 10 5 0 9 -4 9 -10z m70 -15
c11 -16 11 -17 0 -8 -11 10 -16 9 -27 -5 -14 -16 -14 -16 -9 1 7 23 -3 22 -25
-5 -14 -16 -19 -17 -19 -6 0 19 18 34 45 40 11 2 20 4 20 4 1 -1 7 -10 15 -21z
m30 15 c0 -5 -4 -10 -10 -10 -5 0 -10 5 -10 10 0 6 5 10 10 10 6 0 10 -4 10
-10z m-436 -23 c-8 -21 -32 -29 -52 -16 -15 9 -15 10 2 5 12 -4 24 1 33 14 17
24 27 22 17 -3z m712 -3 c2 -23 1 -24 -11 -7 -10 13 -10 20 -2 25 7 4 12 8 12
8 0 0 1 -11 1 -26z m294 16 c0 -5 -4 -10 -10 -10 -5 0 -10 5 -10 10 0 6 5 10
10 10 6 0 10 -4 10 -10z m-1 -33 c-16 -13 -20 -21 -11 -24 6 -3 12 -10 12 -16
0 -6 -8 -3 -17 7 -17 16 -17 18 5 36 12 10 22 24 23 32 0 10 2 10 6 -1 3 -8
-5 -23 -18 -34z m-1279 29 c0 -3 -4 -8 -10 -11 -5 -3 -10 -1 -10 4 0 6 5 11
10 11 6 0 10 -2 10 -4z m35 -6 c3 -5 1 -10 -4 -10 -6 0 -11 5 -11 10 0 6 2 10
4 10 3 0 8 -4 11 -10z m712 -26 c-15 -14 -27 -22 -27 -18 0 12 43 54 49 49 3
-3 -7 -17 -22 -31z m117 12 c-3 -9 -10 -13 -15 -10 -5 3 -3 11 4 19 15 16 19
13 11 -9z m-538 1 c4 -4 2 -7 -4 -7 -7 0 -9 -7 -5 -17 6 -16 5 -16 -10 -4 -21
17 -22 40 -2 37 8 -1 18 -5 21 -9z m194 9 c0 -3 -4 -8 -10 -11 -5 -3 -10 -1
-10 4 0 6 5 11 10 11 6 0 10 -2 10 -4z m-162 -20 c-7 -8 -15 -12 -17 -11 -5 6
10 25 20 25 5 0 4 -6 -3 -14z m749 -8 c-3 -8 -6 -5 -6 6 -1 11 2 17 5 13 3 -3
4 -12 1 -19z m-567 8 c0 -3 -4 -8 -10 -11 -5 -3 -10 -1 -10 4 0 6 5 11 10 11
6 0 10 -2 10 -4z m291 -13 c13 -16 12 -17 -3 -4 -10 7 -18 15 -18 17 0 8 8 3
21 -13z m-614 1 c-3 -3 -12 -4 -19 -1 -8 3 -5 6 6 6 11 1 17 -2 13 -5z m63 -4
c0 -5 -5 -10 -11 -10 -5 0 -7 5 -4 10 3 6 8 10 11 10 2 0 4 -4 4 -10z m87 -18
c-17 -19 -23 -42 -11 -42 4 0 13 8 21 18 13 15 14 15 9 0 -3 -9 0 -19 7 -22 7
-2 -3 -3 -21 -2 -18 2 -35 0 -38 -5 -3 -5 -11 -9 -17 -9 -7 0 -6 4 3 10 13 9
13 11 1 19 -12 8 -12 11 0 23 20 18 53 36 58 32 2 -2 -3 -12 -12 -22z m866 7
c5 -19 4 -20 -12 -5 -16 15 -20 15 -41 -4 -29 -25 -33 -25 -18 0 12 18 26 26
54 29 7 0 14 -8 17 -20z m1265 -73 c20 -39 36 -79 34 -89 -8 -41 -30 -8 -78
119 -32 87 -9 70 44 -30z m-1927 66 c3 1 18 -8 34 -22 17 -14 28 -24 26 -23
-2 2 -10 -2 -18 -9 -11 -8 -12 -7 -7 6 3 9 2 16 -4 16 -6 0 -12 -6 -15 -12 -2
-8 -8 -9 -13 -4 -5 5 -4 11 4 13 6 3 12 8 12 13 0 10 -51 7 -67 -3 -21 -13
-15 4 9 25 15 12 24 15 28 7 4 -6 9 -9 11 -7z m44 8 c3 -5 1 -10 -4 -10 -6 0
-11 5 -11 10 0 6 2 10 4 10 3 0 8 -4 11 -10z m155 6 c0 -3 -4 -8 -10 -11 -5
-3 -10 -1 -10 4 0 6 5 11 10 11 6 0 10 -2 10 -4z m-470 -16 c0 -5 -5 -10 -11
-10 -5 0 -7 5 -4 10 3 6 8 10 11 10 2 0 4 -4 4 -10z m805 0 c7 -11 -34 -60
-49 -60 -6 0 -5 4 3 9 8 5 11 16 8 24 -4 12 -2 14 10 10 12 -5 15 -2 10 10 -7
18 8 24 18 7z m-280 -10 c-3 -5 -11 -10 -16 -10 -6 0 -7 5 -4 10 3 6 11 10 16
10 6 0 7 -4 4 -10z m-139 -38 c-4 -3 -11 0 -16 8 -15 24 -11 33 6 15 9 -9 13
-19 10 -23z m-576 18 c0 -5 -4 -10 -10 -10 -5 0 -10 5 -10 10 0 6 5 10 10 10
6 0 10 -4 10 -10z m170 6 c0 -3 -4 -8 -10 -11 -5 -3 -10 -1 -10 4 0 6 5 11 10
11 6 0 10 -2 10 -4z m930 -27 c0 -5 -8 -9 -17 -9 -15 -1 -14 -4 7 -22 15 -12
18 -19 8 -15 -13 4 -18 -1 -20 -20 -2 -15 -9 -28 -16 -29 -7 -1 -8 0 -2 3 17
8 11 31 -12 47 -12 9 -18 19 -14 23 4 4 11 1 15 -6 6 -9 11 -10 15 -2 4 6 1
14 -8 17 -12 5 -12 8 2 23 17 17 42 11 42 -10z m-1070 -16 c-18 -23 -21 -24
-18 -8 1 11 10 25 18 32 24 18 24 6 0 -24z m331 27 c11 7 20 7 24 0 3 -5 -2
-10 -12 -10 -10 0 -14 -4 -8 -8 6 -4 17 -16 25 -26 15 -19 14 -19 -11 -3 -15
10 -34 15 -45 11 -15 -5 -16 -4 -4 5 8 5 11 14 6 18 -4 4 -14 -1 -22 -11 -10
-15 -14 -16 -14 -5 0 22 22 41 34 29 6 -6 16 -6 27 0z m669 6 c0 -2 -9 -6 -20
-9 -11 -3 -18 -1 -14 4 5 9 34 13 34 5z m137 -18 c-3 -8 -6 -5 -6 6 -1 11 2
17 5 13 3 -3 4 -12 1 -19z m-977 8 c0 -3 -4 -8 -10 -11 -5 -3 -10 -1 -10 4 0
6 5 11 10 11 6 0 10 -2 10 -4z m261 -12 c12 -14 11 -16 -5 -13 -11 2 -21 10
-24 17 -5 17 13 15 29 -4z m-481 -9 c-7 -8 -17 -15 -22 -15 -6 0 -5 7 2 15 7
8 17 15 22 15 6 0 5 -7 -2 -15z m120 0 c7 -8 9 -15 6 -15 -4 0 -14 7 -22 15
-9 8 -11 15 -6 15 5 0 15 -7 22 -15z m340 -17 c0 -6 -7 -5 -15 2 -8 7 -15 17
-15 22 0 6 7 5 15 -2 8 -7 15 -17 15 -22z m125 22 c3 -5 1 -10 -4 -10 -6 0
-11 5 -11 10 0 6 2 10 4 10 3 0 8 -4 11 -10z m119 -11 c-3 -5 -10 -7 -15 -3
-5 3 -7 10 -3 15 3 5 10 7 15 3 5 -3 7 -10 3 -15z m263 -19 c-1 -10 6 -15 20
-14 12 0 20 -3 17 -8 -3 -5 0 -16 7 -24 6 -8 9 -17 5 -21 -3 -3 -6 -1 -6 5 0
7 -4 12 -10 12 -14 0 -12 -28 3 -32 6 -3 -2 -5 -19 -5 -30 0 -30 1 -12 19 10
10 18 24 18 31 -1 7 -6 5 -14 -5 -7 -10 -16 -18 -18 -18 -11 0 -15 49 -6 58 6
6 6 12 -1 16 -6 4 -11 0 -11 -9 0 -9 -5 -13 -10 -10 -8 5 -8 11 -1 19 6 7 7
16 3 21 -4 4 3 1 15 -6 13 -8 22 -21 20 -29z m-963 -12 l-29 -32 28 17 c15 10
27 13 27 8 0 -13 -26 -32 -33 -24 -4 3 -7 0 -7 -8 0 -11 -2 -11 -10 1 -5 8
-10 17 -10 20 0 11 52 61 58 56 3 -4 -8 -21 -24 -38z m497 15 c-12 -20 -14
-14 -5 12 4 9 9 14 11 11 3 -2 0 -13 -6 -23z m654 17 c3 -5 1 -10 -4 -10 -6 0
-11 5 -11 10 0 6 2 10 4 10 3 0 8 -4 11 -10z m-1275 -4 c0 -3 -4 -8 -10 -11
-5 -3 -10 -1 -10 4 0 6 5 11 10 11 6 0 10 -2 10 -4z m54 -11 c11 0 20 -6 22
-13 1 -7 0 -8 -3 -2 -2 5 -9 10 -14 10 -6 0 -7 -5 -3 -12 5 -8 2 -9 -10 -5
-10 4 -20 7 -22 7 -2 0 -4 8 -4 18 0 9 4 13 8 7 4 -5 16 -10 26 -10z m637 -2
c13 -15 12 -15 -8 -4 -24 12 -29 21 -14 21 5 0 15 -7 22 -17z m613 3 c-6 -16
-34 -30 -34 -18 0 5 5 13 12 20 16 16 29 15 22 -2z m-794 -6 c0 -5 -5 -10 -11
-10 -5 0 -7 5 -4 10 3 6 8 10 11 10 2 0 4 -4 4 -10z m424 -14 c-3 -9 -10 -16
-15 -16 -5 0 -4 9 3 20 14 22 21 20 12 -4z m241 13 c12 -19 -5 -23 -22 -6 -16
16 -16 17 -1 17 9 0 20 -5 23 -11z m-955 -40 c7 -12 4 -24 -10 -41 -11 -12
-19 -17 -20 -10 0 6 5 12 10 12 15 0 12 36 -5 50 -8 7 -15 17 -15 22 0 13 28
-10 40 -33z m50 38 c0 -2 -9 -12 -20 -22 -19 -17 -20 -17 -20 -1 0 9 5 14 10
11 6 -3 10 -1 10 4 0 6 5 11 10 11 6 0 10 -2 10 -3z m98 -29 c0 -30 -1 -31 -9
-10 -5 13 -7 28 -3 33 9 15 11 11 12 -23z m105 25 c-7 -2 -19 -2 -25 0 -7 3
-2 5 12 5 14 0 19 -2 13 -5z m-508 -12 c-3 -5 -1 -12 5 -16 5 -3 10 -1 10 4 0
6 5 11 10 11 15 0 12 -17 -3 -23 -19 -7 -41 8 -33 22 4 6 9 11 12 11 3 0 3 -4
-1 -9z m715 1 c0 -5 -9 -17 -20 -27 -11 -10 -20 -13 -20 -7 0 7 5 12 10 12 6
0 10 7 10 15 0 8 5 15 10 15 6 0 10 -4 10 -8z m-262 -20 c-6 -7 -14 -9 -17 -5
-4 4 -10 11 -14 14 -5 4 3 6 16 5 20 -1 23 -4 15 -14z m450 -7 c-3 -3 -9 2
-12 12 -6 14 -5 15 5 6 7 -7 10 -15 7 -18z m192 9 c0 -8 -5 -12 -10 -9 -6 4
-8 11 -5 16 9 14 15 11 15 -7z m-880 2 c0 -3 -4 -8 -10 -11 -5 -3 -10 -1 -10
4 0 6 5 11 10 11 6 0 10 -2 10 -4z m674 -22 c7 -19 2 -18 -19 6 -16 17 -16 20
-3 15 9 -4 19 -13 22 -21z m717 -46 c19 -57 11 -72 -22 -42 -14 13 -19 30 -19
68 0 61 14 52 41 -26z m-1021 56 c13 -5 13 -6 0 -15 -12 -7 -13 -11 -2 -18 11
-7 10 -9 -3 -14 -9 -4 -13 -3 -10 3 3 6 -1 10 -9 10 -8 0 -18 -4 -21 -10 -8
-13 -35 -13 -35 0 0 5 7 6 17 3 12 -5 14 -3 8 7 -5 8 -4 11 2 7 6 -4 17 1 24
10 8 10 9 14 2 10 -6 -4 -14 -4 -17 1 -6 10 21 13 44 6z m-530 -15 c0 -8 5 -8
15 1 18 15 20 5 3 -14 -10 -11 -15 -11 -25 0 -16 15 -17 24 -3 24 6 0 10 -5
10 -11z m140 -4 c11 -13 10 -14 -4 -9 -9 3 -16 10 -16 15 0 13 6 11 20 -6z
m40 5 c0 -5 -4 -10 -10 -10 -5 0 -10 5 -10 10 0 6 5 10 10 10 6 0 10 -4 10
-10z m426 -25 c-7 -20 -22 -19 -30 1 -9 22 3 32 14 14 8 -12 10 -11 11 5 0 11
3 14 6 7 3 -7 2 -19 -1 -27z m628 19 c3 -8 2 -12 -4 -9 -6 3 -10 10 -10 16 0
14 7 11 14 -7z m-1319 -13 c-3 -6 -11 -11 -16 -11 -5 0 -4 6 3 14 14 16 24 13
13 -3z m2965 9 c0 -7 -116 -100 -124 -100 -3 0 -6 10 -6 23 -1 40 -25 60 -65
54 -40 -6 -46 3 -12 18 22 10 207 14 207 5z m-2640 -32 c0 -6 -7 -5 -15 2 -8
7 -15 17 -15 22 0 6 7 5 15 -2 8 -7 15 -17 15 -22z m650 10 c0 -5 -9 -4 -20 2
-16 9 -20 8 -20 -6 0 -10 -3 -15 -6 -11 -4 3 -4 13 -1 21 6 15 47 11 47 -6z
m290 16 c0 -3 -7 -12 -15 -20 -16 -17 -18 -14 -9 10 6 15 24 23 24 10z m-1320
-8 c0 -3 -4 -8 -10 -11 -5 -3 -10 -1 -10 4 0 6 5 11 10 11 6 0 10 -2 10 -4z
m130 -6 c0 -5 -4 -10 -9 -10 -6 0 -13 5 -16 10 -3 6 1 10 9 10 9 0 16 -4 16
-10z m830 1 c0 -5 -7 -12 -16 -15 -14 -5 -15 -4 -4 9 14 17 20 19 20 6z m157
3 c-3 -3 -12 -4 -19 -1 -8 3 -5 6 6 6 11 1 17 -2 13 -5z m-697 -13 c0 -5 -6
-14 -14 -20 -12 -10 -13 -8 -9 8 5 21 23 30 23 12z m290 -1 c0 -5 -2 -10 -4
-10 -3 0 -8 5 -11 10 -3 6 -1 10 4 10 6 0 11 -4 11 -10z m-512 -18 c-10 -2
-18 -8 -18 -14 0 -6 -3 -8 -6 -5 -11 10 17 38 30 30 7 -5 5 -9 -6 -11z m158 3
c14 -13 14 -17 -1 -31 -9 -9 -19 -13 -23 -10 -3 4 0 12 8 17 11 8 12 12 3 16
-13 5 -18 23 -7 23 3 0 12 -7 20 -15z m231 -1 c-3 -3 -12 -4 -19 -1 -8 3 -5 6
6 6 11 1 17 -2 13 -5z m73 -2 c0 -10 -22 -32 -32 -32 -5 0 -3 9 4 20 13 20 28
27 28 12z m-400 -8 c0 -7 -27 -34 -34 -34 -4 0 -1 9 6 20 12 19 28 27 28 14z
m340 -13 c-5 -11 -15 -23 -22 -27 -7 -5 -8 -2 -3 7 21 37 44 55 25 20z m-540
-12 c0 -14 -17 -10 -23 5 -4 10 -1 13 9 9 7 -3 14 -9 14 -14z m250 -4 c11 -13
10 -14 -4 -9 -9 3 -16 10 -16 15 0 13 6 11 20 -6z m150 -30 c-7 -8 -17 -15
-22 -15 -5 0 -2 7 6 16 9 8 13 21 10 27 -5 9 -3 8 6 0 11 -10 11 -15 0 -28z
m270 32 c0 -2 -9 -12 -20 -22 -24 -21 -27 -14 -4 9 15 15 24 20 24 13z m274
-19 c-6 -20 -5 -21 10 -9 22 18 20 8 -5 -31 -20 -31 -21 -32 -15 -6 4 17 1 28
-7 31 -9 3 -9 7 2 20 19 23 24 21 15 -5z m215 -8 c-16 -10 -32 -3 -23 11 3 5
10 7 15 4 5 -4 9 0 10 7 0 10 2 10 6 -1 3 -7 -1 -17 -8 -21z m120 -12 c-13
-49 -62 -78 -131 -78 -59 0 -56 12 14 49 24 12 61 33 83 46 22 13 41 23 42 21
1 -1 -2 -18 -8 -38z m-446 17 c-3 -9 -8 -14 -10 -11 -3 3 -2 9 2 15 9 16 15
13 8 -4z m-103 -5 c-8 -5 -19 -10 -25 -10 -5 0 -3 5 5 10 8 5 20 10 25 10 6 0
3 -5 -5 -10z m69 -35 c0 -5 -4 -3 -9 5 -5 8 -9 22 -9 30 0 16 17 -16 18 -35z
m281 35 c0 -5 -4 -10 -10 -10 -5 0 -10 5 -10 10 0 6 5 10 10 10 6 0 10 -4 10
-10z m-1055 -11 c11 -17 -1 -21 -15 -4 -8 9 -8 15 -2 15 6 0 14 -5 17 -11z
m45 -9 c0 -4 -6 -12 -12 -18 -10 -8 -13 -5 -13 13 0 14 5 21 13 18 6 -3 12 -9
12 -13z m778 0 c-7 -10 -14 -17 -17 -15 -4 4 18 35 25 35 2 0 -1 -9 -8 -20z
m137 -10 c-14 -16 -15 -22 -5 -35 16 -19 3 -20 -16 0 -13 13 -12 17 8 38 27
29 39 26 13 -3z m-705 14 c0 -1 -3 -10 -6 -19 -5 -13 -9 -14 -15 -4 -6 10 -14
6 -33 -14 -32 -34 -34 -25 -3 13 12 15 30 27 40 27 9 -1 17 -2 17 -3z m2370
-4 c0 -5 -5 -10 -11 -10 -5 0 -7 5 -4 10 3 6 8 10 11 10 2 0 4 -4 4 -10z
m-2270 -28 c-17 -6 -40 -27 -40 -37 0 -4 -6 -13 -14 -20 -12 -12 -15 -12 -21
2 -3 10 -3 14 1 11 10 -10 56 50 49 63 -5 7 1 7 16 -2 18 -9 20 -14 9 -17z
m75 18 c-3 -5 -12 -10 -18 -10 -7 0 -6 4 3 10 19 12 23 12 15 0z m245 0 c0 -5
-4 -10 -10 -10 -5 0 -10 5 -10 10 0 6 5 10 10 10 6 0 10 -4 10 -10z m20 -20
c-12 -16 -17 -30 -11 -30 5 0 14 8 20 17 5 10 12 15 15 12 3 -3 0 -14 -8 -24
-13 -18 -16 -18 -42 -5 -30 15 -44 29 -44 43 0 4 11 0 24 -9 23 -15 26 -14 38
5 7 12 17 21 21 21 5 0 -1 -13 -13 -30z m375 20 c-3 -5 -11 -10 -16 -10 -6 0
-7 5 -4 10 3 6 11 10 16 10 6 0 7 -4 4 -10z m550 -25 c0 -39 -31 -48 -41 -11
-7 30 2 48 24 44 11 -2 17 -13 17 -33z m-1345 15 c0 -5 -5 -10 -11 -10 -5 0
-7 5 -4 10 3 6 8 10 11 10 2 0 4 -4 4 -10z m320 -15 c-7 -8 -16 -15 -21 -15
-5 0 -1 9 8 20 9 11 19 17 21 15 3 -3 -1 -11 -8 -20z m-670 11 c0 -3 -4 -8
-10 -11 -5 -3 -10 -1 -10 4 0 6 5 11 10 11 6 0 10 -2 10 -4z m223 -13 c8 -10
17 -25 19 -33 5 -23 31 -41 40 -27 4 7 6 2 5 -11 -2 -26 -12 -28 -35 -5 -16
16 -18 21 -21 51 0 7 -5 10 -11 7 -5 -3 -10 0 -10 9 0 8 -6 17 -12 19 -8 3 -8
6 -2 6 6 1 18 -7 27 -16z m-113 -18 c-12 -15 -3 -37 25 -57 5 -4 6 -11 1 -15
-5 -4 -11 -2 -13 5 -3 7 -11 19 -19 26 -17 18 -18 28 -2 44 17 17 23 15 8 -3z
m88 -6 c10 -13 8 -21 -13 -43 -14 -15 -25 -23 -25 -17 0 5 7 17 16 25 10 11
13 24 8 38 -3 13 -5 21 -2 18 2 -3 9 -12 16 -21z m114 -10 c5 -3 -5 -6 -22 -6
-29 0 -29 1 -13 19 13 15 19 16 22 6 2 -7 8 -16 13 -19z m28 27 c0 -3 -4 -8
-10 -11 -5 -3 -10 -1 -10 4 0 6 5 11 10 11 6 0 10 -2 10 -4z m773 -11 c-3 -9
-8 -14 -10 -11 -3 3 -2 9 2 15 9 16 15 13 8 -4z m653 -23 c-3 -6 -15 -8 -25
-5 -17 4 -18 8 -8 24 10 16 14 17 25 5 8 -8 12 -19 8 -24z m-756 7 c0 -6 -4
-7 -10 -4 -5 3 -10 11 -10 16 0 6 5 7 10 4 6 -3 10 -11 10 -16z m-436 -33 c-3
-9 -10 -16 -15 -16 -17 0 -22 30 -8 46 11 13 14 13 21 0 4 -8 5 -21 2 -30z
m116 29 c7 -8 9 -15 6 -15 -4 0 -14 7 -22 15 -9 8 -11 15 -6 15 5 0 15 -7 22
-15z m53 -44 c-3 -4 -8 0 -10 7 -3 6 -9 9 -14 6 -6 -3 -5 -11 2 -20 15 -18 2
-18 -16 -1 -11 11 -9 18 9 40 l21 26 7 -27 c4 -14 5 -28 1 -31z m-743 27 c0
-6 -6 -5 -15 2 -8 7 -15 14 -15 16 0 2 7 1 15 -2 8 -4 15 -11 15 -16z m30 12
c0 -5 -5 -10 -11 -10 -5 0 -7 5 -4 10 3 6 8 10 11 10 2 0 4 -4 4 -10z m767
-12 c-3 -8 -6 -5 -6 6 -1 11 2 17 5 13 3 -3 4 -12 1 -19z m88 12 c3 -5 1 -10
-4 -10 -6 0 -11 5 -11 10 0 6 2 10 4 10 3 0 8 -4 11 -10z m135 0 c5 8 10 10
10 4 0 -18 -72 -84 -84 -76 -19 11 -40 11 -48 -1 -4 -6 -2 -14 4 -18 7 -4 7
-9 -1 -13 -6 -4 -11 -3 -11 3 0 7 -8 7 -26 0 -22 -8 -30 -6 -46 11 -10 11 -15
20 -10 20 5 0 15 -6 21 -14 13 -16 51 -10 48 8 -1 6 -9 14 -17 18 -8 3 4 5 28
4 44 -3 50 1 30 24 -8 8 0 6 16 -4 27 -17 29 -17 45 -1 12 13 13 19 4 22 -7 3
-13 9 -13 14 0 5 9 4 20 -3 17 -11 22 -10 30 2z m-253 -22 c-3 -8 -6 -5 -6 6
-1 11 2 17 5 13 3 -3 4 -12 1 -19z m-301 -3 c-8 -8 -18 -15 -22 -15 -3 0 -1 7
6 15 7 8 17 15 22 15 5 0 3 -7 -6 -15z m944 5 c63 2 126 2 140 1 14 -1 257 -3
540 -4 l515 -2 -2 -25 c-2 -34 -11 -105 -13 -105 -1 0 -4 -18 -6 -39 -1 -21
-7 -43 -13 -49 -6 -6 -157 -12 -375 -14 l-366 -5 -10 26 c-7 20 -16 26 -41 26
-25 0 -33 -6 -42 -29 -10 -27 -14 -29 -81 -33 -39 -2 -174 -3 -301 -2 -126 1
-256 2 -287 3 -69 0 -67 -8 -35 141 l22 105 75 6 c41 3 95 4 120 1 25 -2 97
-3 160 -2z m-515 -10 c3 -5 1 -10 -4 -10 -6 0 -11 5 -11 10 0 6 2 10 4 10 3 0
8 -4 11 -10z m-469 -9 c-4 -5 -3 -11 1 -14 5 -2 3 -2 -4 -1 -6 2 -14 -2 -16
-9 -2 -7 -8 -9 -12 -5 -4 4 -1 14 6 22 15 16 34 22 25 7z m98 -9 c-15 -10 -24
-40 -18 -57 5 -11 11 -12 24 -5 29 16 35 12 14 -11 -16 -17 -16 -22 -4 -29 9
-6 10 -10 3 -10 -6 0 -19 7 -27 16 -12 12 -16 12 -16 2 0 -8 -7 -4 -18 8 -9
12 -25 20 -35 19 -18 -3 -18 -3 -1 16 9 10 13 19 9 19 -4 0 0 9 9 19 10 11 24
17 31 15 7 -3 16 0 20 6 4 6 10 9 13 5 4 -3 2 -9 -4 -13z m116 14 c0 -2 -7 -7
-16 -10 -8 -3 -12 -2 -9 4 6 10 25 14 25 6z m2041 -14 c13 -10 36 -23 52 -30
36 -16 34 -31 -10 -73 -34 -32 -102 -79 -115 -79 -6 0 -4 13 13 115 16 96 18
99 60 67z m-2621 -2 c0 -5 -2 -10 -4 -10 -3 0 -8 5 -11 10 -3 6 -1 10 4 10 6
0 11 -4 11 -10z m137 -4 c-3 -7 0 -19 6 -25 8 -8 8 -11 -1 -11 -7 0 -12 5 -12
11 0 5 -4 7 -10 4 -14 -9 -13 8 2 23 16 16 21 15 15 -2z m-87 -27 c-7 -11 -14
-19 -16 -16 -7 7 7 37 17 37 6 0 5 -9 -1 -21z m35 1 c-10 -11 -20 -18 -23 -15
-7 6 18 35 31 35 5 0 2 -9 -8 -20z m403 8 c-2 -6 -10 -14 -16 -16 -7 -2 -10 2
-6 12 7 18 28 22 22 4z m202 -4 c0 -8 -5 -12 -10 -9 -6 4 -8 11 -5 16 9 14 15
11 15 -7z m-176 -45 c-9 -10 -22 -19 -27 -19 -6 0 -2 6 8 14 10 7 16 20 12 29
-8 21 5 31 16 12 6 -11 3 -22 -9 -36z m59 39 c-12 -19 -10 -32 7 -46 13 -11
12 -12 -6 -3 -12 6 -24 8 -27 4 -11 -10 3 -23 25 -23 18 0 68 -44 68 -60 0 -3
-16 -18 -36 -34 l-36 -28 -21 22 c-18 19 -19 22 -4 17 11 -4 17 -1 17 9 0 8 5
12 10 9 6 -3 10 1 10 9 0 9 -6 16 -12 17 -10 0 -10 2 0 6 6 2 12 9 12 14 0 15
-22 10 -36 -8 -7 -10 -16 -14 -21 -10 -4 5 0 15 10 22 12 9 14 15 7 20 -8 5
-8 11 1 21 6 8 8 14 4 14 -5 0 0 9 10 20 20 22 30 27 18 8z m32 -15 c-9 -8
-18 -13 -21 -10 -8 8 19 36 29 30 4 -2 0 -11 -8 -20z m70 -3 c3 -5 2 -10 -4
-10 -5 0 -13 5 -16 10 -3 6 -2 10 4 10 5 0 13 -4 16 -10z m67 -2 c-17 -17 -15
-27 6 -23 9 1 11 0 4 -2 -9 -3 -10 -8 -3 -17 8 -9 7 -13 -4 -13 -8 0 -16 6
-19 14 -3 7 -13 13 -23 13 -17 -1 -16 -2 1 -15 16 -12 17 -15 4 -15 -14 0 -46
28 -37 33 63 36 93 47 71 25z m-502 -8 c0 -5 -5 -10 -11 -10 -5 0 -7 5 -4 10
3 6 8 10 11 10 2 0 4 -4 4 -10z m70 -10 c0 -11 -6 -20 -14 -20 -8 0 -17 -6
-19 -12 -4 -10 -6 -10 -6 0 -1 7 6 15 14 18 8 4 15 12 15 20 0 8 2 14 5 14 3
0 5 -9 5 -20z m313 0 c-9 -11 -19 -17 -21 -15 -6 6 18 35 29 35 5 0 1 -9 -8
-20z m-643 -11 c-7 -11 -14 -18 -17 -15 -8 8 5 36 17 36 7 0 7 -6 0 -21z m85
-8 c-6 -5 -25 10 -25 20 0 5 6 4 14 -3 8 -7 12 -15 11 -17z m188 -1 c-14 -16
-28 -30 -30 -30 -3 0 5 14 17 30 12 17 26 30 31 30 5 0 -3 -13 -18 -30z m557
20 c-20 -13 -33 -13 -25 0 3 6 14 10 23 10 15 0 15 -2 2 -10z m2541 -43 c-13
-13 -15 1 -4 30 7 17 8 17 11 -1 2 -10 -1 -23 -7 -29z m-2959 26 c-6 -3 -10
-9 -7 -13 3 -5 1 -11 -4 -15 -6 -3 -15 3 -20 13 -9 17 -7 19 17 19 15 0 21 -2
14 -4z m-38 -30 l24 -28 22 25 c27 31 15 7 -18 -37 -13 -18 -29 -33 -35 -33
-5 0 -2 9 9 21 10 12 14 23 9 27 -17 12 -48 52 -41 52 4 0 18 -12 30 -27z
m290 11 c9 -24 0 -29 -18 -11 -8 8 -12 17 -9 21 11 10 21 7 27 -10z m26 6 c0
-5 -5 -10 -11 -10 -5 0 -7 5 -4 10 3 6 8 10 11 10 2 0 4 -4 4 -10z m-360 -10
c0 -5 -5 -10 -11 -10 -5 0 -7 5 -4 10 3 6 8 10 11 10 2 0 4 -4 4 -10z m-193
-28 c0 -26 -2 -27 -16 -13 -12 12 -13 17 -4 19 7 2 13 8 13 13 0 5 2 9 3 9 2
0 4 -13 4 -28z m50 22 c-3 -3 -12 -4 -19 -1 -8 3 -5 6 6 6 11 1 17 -2 13 -5z
m273 -13 c0 -6 -5 -13 -11 -16 -6 -4 -8 -14 -5 -22 4 -8 2 -11 -5 -7 -6 4 -15
0 -20 -7 -7 -11 -9 -11 -9 -1 0 7 7 24 16 37 16 25 34 33 34 16z m74 -7 c12
-31 7 -46 -13 -39 -13 4 -27 -1 -40 -14 -15 -15 -21 -17 -21 -7 0 8 9 17 19
21 10 3 22 17 25 30 7 28 21 33 30 9z m176 5 c0 -5 -4 -7 -10 -4 -5 3 -10 -1
-10 -10 0 -9 -5 -13 -10 -10 -8 5 -7 11 1 21 14 17 29 18 29 3z m-720 -3 c0
-3 -4 -8 -10 -11 -5 -3 -10 -1 -10 4 0 6 5 11 10 11 6 0 10 -2 10 -4z m235
-25 c-4 -13 1 -24 15 -34 11 -7 17 -17 13 -20 -3 -4 -13 2 -21 14 -8 12 -20
18 -30 14 -8 -3 -19 0 -24 7 -13 21 -9 31 6 19 11 -9 17 -9 28 3 18 20 21 20
13 -3z m-145 -6 c-9 -10 -9 -15 -1 -15 6 0 11 -5 11 -11 0 -8 -4 -9 -13 0 -8
6 -17 7 -21 3 -4 -4 -6 0 -4 8 3 16 18 30 32 30 5 0 3 -7 -4 -15z m220 11 c0
-2 3 -12 6 -21 6 -15 4 -15 -15 -4 -25 16 -27 29 -6 29 8 0 15 -2 15 -4z m30
0 c0 -3 -4 -8 -10 -11 -5 -3 -10 -1 -10 4 0 6 5 11 10 11 6 0 10 -2 10 -4z
m28 -16 c-7 -11 -19 -20 -27 -20 -11 0 -10 5 5 19 25 26 37 26 22 1z m122 16
c0 -3 -4 -8 -10 -11 -5 -3 -10 -1 -10 4 0 6 5 11 10 11 6 0 10 -2 10 -4z
m-351 -34 c-5 -2 -9 -11 -8 -20 0 -10 3 -12 6 -5 6 15 43 -5 43 -24 0 -6 6
-13 12 -15 9 -3 8 -10 -5 -22 -10 -10 -21 -15 -25 -12 -3 4 0 11 8 16 8 5 11
12 7 16 -3 4 -14 1 -24 -7 -15 -12 -16 -12 -8 1 13 21 15 40 4 40 -5 0 -9 -5
-9 -11 0 -6 -7 -4 -15 5 -12 12 -14 32 -6 64 1 1 7 -3 15 -10 8 -7 10 -14 5
-16z m141 8 c8 -5 12 -11 10 -14 -3 -2 -14 2 -24 10 -22 15 -10 19 14 4z m250
-15 c0 -8 -7 -15 -15 -15 -26 0 -18 20 13 29 1 1 2 -6 2 -14z m-523 -30 c-23
-22 -33 -18 -12 5 10 11 20 18 23 16 2 -3 -3 -12 -11 -21z m361 18 c-10 -2
-26 -2 -35 0 -10 3 -2 5 17 5 19 0 27 -2 18 -5z m49 1 c-3 -3 -12 -4 -19 -1
-8 3 -5 6 6 6 11 1 17 -2 13 -5z m23 -14 c-11 -20 3 -30 15 -10 3 6 15 10 26
10 10 0 19 -4 19 -10 0 -5 -4 -10 -9 -10 -6 0 -9 -8 -8 -19 1 -13 7 -17 20
-13 14 4 16 7 5 13 -9 6 -9 9 -1 9 26 0 22 -20 -7 -35 -22 -11 -30 -12 -30 -3
0 6 -6 3 -14 -8 -8 -10 -16 -17 -18 -14 -3 3 -12 16 -21 30 -9 13 -17 19 -17
12 0 -6 -8 -12 -17 -12 -9 0 -25 -8 -35 -17 -17 -15 -20 -15 -28 -3 -13 20
-12 30 1 30 5 0 7 5 4 10 -3 6 -1 10 4 10 6 0 11 -4 11 -10 0 -13 30 -13 50 0
13 8 12 11 -5 24 -17 13 -18 15 -3 16 9 0 20 -9 23 -20 3 -11 11 -20 17 -20 5
0 7 7 4 16 -4 9 -1 23 5 30 17 20 21 17 9 -6z m127 5 c21 -21 13 -26 -23 -16
-16 6 -21 10 -11 10 10 1 15 6 12 11 -10 15 5 12 22 -5z m-342 -53 c-3 -7 -5
-21 -5 -30 -1 -15 -2 -15 -11 1 -7 13 -7 22 0 31 8 10 7 17 -4 26 -8 7 -15 17
-15 23 0 5 9 0 20 -13 12 -13 18 -30 15 -38z m65 40 c0 -4 -9 -13 -20 -20 -23
-14 -26 -8 -7 13 13 16 27 19 27 7z m-238 -30 c-24 -25 -29 -26 -44 -13 -10 8
-15 17 -13 19 3 3 11 0 18 -7 11 -8 18 -6 32 9 10 11 22 20 26 20 5 0 -4 -13
-19 -28z m270 21 c-22 -9 -35 -43 -21 -59 15 -19 2 -18 -17 1 -9 8 -12 20 -8
27 16 26 29 37 44 37 10 0 11 -2 2 -6z m53 -13 c3 -5 1 -10 -4 -10 -6 0 -11 5
-11 10 0 6 2 10 4 10 3 0 8 -4 11 -10z m185 6 c0 -3 -4 -8 -10 -11 -5 -3 -10
-1 -10 4 0 6 5 11 10 11 6 0 10 -2 10 -4z m-580 -22 c0 -8 -4 -12 -10 -9 -5 3
-10 10 -10 16 0 5 5 9 10 9 6 0 10 -7 10 -16z m150 6 c0 -5 -4 -10 -10 -10 -5
0 -10 5 -10 10 0 6 5 10 10 10 6 0 10 -4 10 -10z m120 -20 c0 -5 -4 -10 -10
-10 -5 0 -10 5 -10 10 0 6 5 10 10 10 6 0 10 -4 10 -10z m-160 -10 c5 8 12 12
15 9 7 -7 -61 -69 -75 -69 -6 0 -10 7 -10 15 0 8 -4 15 -10 15 -5 0 -10 7 -10
16 0 13 3 14 14 5 10 -9 16 -8 26 4 10 12 16 13 27 3 11 -9 16 -9 23 2z m318
-42 c-19 -12 -28 -10 -28 7 0 8 -5 15 -11 15 -5 0 -7 5 -4 10 4 6 10 8 15 5 5
-3 12 0 16 7 5 7 10 4 16 -12 6 -16 5 -26 -4 -32z m-278 22 c0 -5 -2 -10 -4
-10 -3 0 -8 5 -11 10 -3 6 -1 10 4 10 6 0 11 -4 11 -10z m50 -10 c-6 -11 -13
-20 -16 -20 -2 0 0 9 6 20 6 11 13 20 16 20 2 0 0 -9 -6 -20z m30 -4 c0 -3 -4
-8 -10 -11 -5 -3 -10 -1 -10 4 0 6 5 11 10 11 6 0 10 -2 10 -4z m40 -6 c0 -5
-4 -10 -10 -10 -5 0 -10 5 -10 10 0 6 5 10 10 10 6 0 10 -4 10 -10z m40 -5 c0
-8 -4 -15 -10 -15 -5 0 -10 -4 -10 -10 0 -5 8 -7 18 -3 14 5 14 3 -3 -14 -11
-11 -22 -19 -24 -17 -11 10 -6 46 6 51 12 5 12 7 1 14 -10 7 -9 9 5 9 9 0 17
-7 17 -15z m-302 -12 c-16 -15 -16 -17 0 -29 15 -12 15 -13 1 -14 -24 0 -31
27 -13 45 9 8 18 15 22 15 3 0 -1 -8 -10 -17z m146 0 c-7 -7 -12 -19 -10 -26
1 -7 1 -8 -2 -4 -2 4 -10 3 -18 -4 -16 -13 -18 -1 -4 21 5 9 5 17 -1 21 -5 3
3 6 20 6 25 0 27 -2 15 -14z m26 -13 c0 -5 -4 -10 -10 -10 -5 0 -10 5 -10 10
0 6 5 10 10 10 6 0 10 -4 10 -10z m90 -10 c0 -5 -4 -10 -10 -10 -5 0 -10 5
-10 10 0 6 5 10 10 10 6 0 10 -4 10 -10z m120 -15 c0 -8 -4 -15 -10 -15 -5 0
-7 7 -4 15 4 8 8 15 10 15 2 0 4 -7 4 -15z"/>
<path d="M2189 1054 c-12 -14 -11 -16 5 -13 11 2 21 10 24 17 5 17 -13 15 -29
-4z"/>
<path d="M2116 1031 c-14 -5 -16 -10 -7 -15 15 -9 41 -1 41 14 0 11 -7 12 -34
1z"/>
<path d="M1977 976 c-9 -24 4 -86 19 -86 10 0 12 13 10 47 -4 47 -19 67 -29
39z"/>
<path d="M1976 824 c-11 -28 -6 -54 9 -54 10 0 15 11 15 35 0 36 -13 47 -24
19z"/>
<path d="M1990 686 c0 -23 11 -46 20 -41 10 6 0 55 -11 55 -5 0 -9 -6 -9 -14z"/>
<path d="M2017 614 c-9 -16 3 -52 20 -59 23 -8 28 2 11 22 -9 10 -17 25 -20
33 -3 8 -7 10 -11 4z"/>
<path d="M600 450 c0 -5 5 -10 10 -10 6 0 10 5 10 10 0 6 -4 10 -10 10 -5 0
-10 -4 -10 -10z"/>
<path d="M524 398 c-15 -23 -13 -38 7 -48 20 -11 28 3 8 16 -8 4 -7 9 2 15 10
6 11 11 3 19 -9 9 -14 8 -20 -2z"/>
<path d="M705 259 c4 -6 -4 -23 -16 -37 l-24 -27 26 23 c14 12 31 22 37 22 17
0 15 17 -4 24 -22 9 -26 8 -19 -5z"/>
<path d="M528 158 c-17 -17 -24 -38 -12 -38 12 0 35 31 32 43 -2 9 -8 8 -20
-5z"/>
<path d="M405 130 c-3 -5 -1 -10 4 -10 6 0 11 5 11 10 0 6 -2 10 -4 10 -3 0
-8 -4 -11 -10z"/>
<path d="M122 104 c-7 -8 -12 -19 -10 -25 2 -6 12 -2 21 9 10 11 15 22 10 25
-4 3 -14 -2 -21 -9z"/>
<path d="M2 280 c1 -29 2 -30 20 -14 23 21 24 41 1 23 -15 -12 -16 -12 -10 4
3 9 2 17 -3 17 -5 0 -8 -14 -8 -30z"/>
<path d="M135 10 c3 -5 8 -10 11 -10 2 0 4 5 4 10 0 6 -5 10 -11 10 -5 0 -7
-4 -4 -10z"/>
<path d="M280 10 c0 -5 5 -10 10 -10 6 0 10 5 10 10 0 6 -4 10 -10 10 -5 0
-10 -4 -10 -10z"/>
</g>
</svg>
