<?xml version="1.0" standalone="no"?>
<!DOCTYPE svg PUBLIC "-//W3C//DTD SVG 20010904//EN"
 "http://www.w3.org/TR/2001/REC-SVG-20010904/DTD/svg10.dtd">
<svg version="1.0" xmlns="http://www.w3.org/2000/svg"
 width="400.000000pt" height="400.000000pt" viewBox="0 0 400.000000 400.000000"
 preserveAspectRatio="xMidYMid meet">
<metadata>
Created by potrace 1.14, written by Peter Selinger 2001-2017
</metadata>
<g transform="translate(0.000000,400.000000) scale(0.100000,-0.100000)"
fill="#000000" stroke="none">
<path d="M1873 3052 c1 -15 -14 -58 -32 -95 -22 -45 -30 -72 -24 -78 7 -7 12
3 17 30 7 46 24 62 38 37 9 -16 12 -16 35 6 l25 23 24 -30 c13 -16 24 -37 24
-47 0 -9 7 -15 15 -14 9 1 14 6 13 12 -2 5 -7 8 -11 6 -5 -1 -6 2 -2 8 8 12
-61 140 -75 140 -6 0 -10 6 -10 13 0 7 -9 13 -19 14 -15 1 -19 -4 -18 -25z
m27 -3 c0 -5 -4 -9 -8 -9 -5 0 -9 7 -9 15 0 8 4 12 9 9 4 -3 8 -9 8 -15z"/>
<path d="M3355 2963 c33 -5 50 -23 32 -35 -7 -5 -2 -8 13 -9 23 0 23 -1 5 -9
-16 -7 -17 -9 -3 -9 21 -1 32 15 18 24 -8 5 -8 11 0 20 8 9 3 14 -21 19 -17 3
-41 5 -53 5 -13 -1 -10 -4 9 -6z"/>
<path d="M3263 2953 c9 -2 23 -2 30 0 6 3 -1 5 -18 5 -16 0 -22 -2 -12 -5z"/>
<path d="M3149 2939 c-9 -5 12 -9 54 -9 42 0 67 -4 67 -11 0 -6 8 -9 18 -7 10
3 23 -1 30 -9 7 -7 23 -13 35 -12 21 1 20 1 -3 8 -23 7 -23 8 -5 13 19 5 19 5
-1 4 -12 0 -27 4 -35 10 -18 14 -142 24 -160 13z"/>
<path d="M3345 2940 l-30 -8 27 -1 c15 0 30 4 33 9 3 6 5 9 3 9 -2 -1 -16 -5
-33 -9z"/>
<path d="M3205 2910 c3 -5 13 -10 21 -10 8 0 14 5 14 10 0 6 -9 10 -21 10 -11
0 -17 -4 -14 -10z"/>
<path d="M1882 2881 c-13 -36 -12 -37 10 -12 9 10 12 24 8 31 -5 8 -11 1 -18
-19z"/>
<path d="M3145 2900 c3 -5 15 -10 26 -10 11 0 17 5 14 10 -3 6 -15 10 -26 10
-11 0 -17 -4 -14 -10z"/>
<path d="M3077 2893 c-3 -5 8 -9 24 -10 17 -1 27 2 24 7 -7 12 -42 13 -48 3z"/>
<path d="M3285 2890 c3 -5 11 -10 16 -10 6 0 7 5 4 10 -3 6 -11 10 -16 10 -6
0 -7 -4 -4 -10z"/>
<path d="M3230 2880 l-25 -8 27 -1 c15 -1 30 4 33 9 7 11 0 11 -35 0z"/>
<path d="M1800 2845 c0 -8 5 -15 10 -15 6 0 10 7 10 15 0 8 -4 15 -10 15 -5 0
-10 -7 -10 -15z"/>
<path d="M1796 2770 c3 -42 0 -50 -17 -55 -12 -4 -18 -13 -15 -20 2 -7 -2 -16
-11 -19 -9 -4 -13 -9 -10 -12 8 -8 42 12 73 43 24 24 25 28 10 38 -9 7 -16 24
-16 38 0 14 -4 28 -8 31 -5 3 -7 -17 -6 -44z"/>
<path d="M1753 2610 c-1 -11 3 -20 8 -20 6 0 8 4 5 9 -3 5 1 12 10 15 24 9 31
7 14 -4 -11 -7 -11 -10 -2 -10 7 0 10 -5 6 -12 -4 -7 -3 -8 5 -4 6 4 9 12 6
17 -4 5 1 9 9 9 8 0 17 4 20 8 3 5 -14 10 -37 10 -36 2 -43 -1 -44 -18z"/>
<path d="M1854 2618 c3 -12 0 -18 -9 -18 -8 0 -15 -4 -15 -10 0 -14 16 -12 28
3 8 9 8 17 0 27 -8 12 -9 12 -4 -2z"/>
<path d="M1718 2613 c7 -3 16 -2 19 1 4 3 -2 6 -13 5 -11 0 -14 -3 -6 -6z"/>
<path d="M1670 2600 c-8 -5 -10 -10 -5 -10 6 0 17 5 25 10 8 5 11 10 5 10 -5
0 -17 -5 -25 -10z"/>
<path d="M1887 2599 c7 -7 15 -10 18 -7 3 3 -2 9 -12 12 -14 6 -15 5 -6 -5z"/>
<path d="M1710 2585 c-19 -22 -8 -25 13 -3 9 10 13 18 8 18 -5 0 -14 -7 -21
-15z"/>
<path d="M1584 2554 c-18 -14 -18 -15 4 -4 12 6 22 13 22 15 0 8 -5 6 -26 -11z"/>
<path d="M1707 2543 c-4 -3 -7 -17 -7 -29 0 -15 -10 -29 -27 -38 -33 -18 -25
-21 11 -5 17 8 25 21 28 45 4 37 4 37 -5 27z"/>
<path d="M1524 2508 l-29 -33 33 29 c30 28 37 36 29 36 -2 0 -16 -15 -33 -32z"/>
<path d="M1535 2470 c-3 -6 1 -7 9 -4 18 7 21 14 7 14 -6 0 -13 -4 -16 -10z"/>
<path d="M1565 2442 l-29 -37 31 29 c20 18 36 25 45 20 10 -6 10 -4 -1 9 -7 9
-14 17 -15 16 0 0 -14 -17 -31 -37z"/>
<path d="M1455 2428 l-40 -43 43 40 c39 36 47 45 39 45 -2 0 -21 -19 -42 -42z"/>
<path d="M1530 2440 c-9 -6 -10 -10 -3 -10 6 0 15 5 18 10 8 12 4 12 -15 0z"/>
<path d="M1394 2358 l-19 -23 23 19 c21 18 27 26 19 26 -2 0 -12 -10 -23 -22z"/>
<path d="M1515 2370 c-4 -6 -11 -8 -16 -5 -5 4 -4 -6 1 -21 8 -19 7 -31 -2
-43 -12 -14 -11 -15 5 -2 10 8 15 21 12 28 -2 8 0 23 5 34 11 19 6 27 -5 9z"/>
<path d="M1315 2244 c-9 -15 -12 -23 -6 -20 11 7 35 46 28 46 -3 0 -12 -12
-22 -26z"/>
<path d="M1486 2205 c4 -8 8 -15 10 -15 2 0 4 7 4 15 0 8 -4 15 -10 15 -5 0
-7 -7 -4 -15z"/>
<path d="M1274 2188 l-19 -23 23 19 c21 18 27 26 19 26 -2 0 -12 -10 -23 -22z"/>
<path d="M1463 2183 c-3 -10 -7 -20 -9 -23 -1 -3 2 -12 7 -20 9 -13 10 -13 6
0 -2 8 0 25 4 38 5 12 6 22 3 22 -2 0 -7 -8 -11 -17z"/>
<path d="M1526 2165 c-33 -30 -40 -31 -33 -5 3 11 1 18 -4 14 -14 -8 -11 -44
4 -44 6 0 23 12 36 25 23 25 51 33 51 15 0 -5 -7 -10 -16 -10 -9 0 -12 -5 -8
-12 5 -8 13 -4 25 11 10 12 20 17 24 11 3 -5 11 -10 16 -10 6 0 4 6 -3 13 -23
22 -64 18 -92 -8z"/>
<path d="M1234 2138 l-19 -23 23 19 c21 18 27 26 19 26 -2 0 -12 -10 -23 -22z"/>
<path d="M1194 2088 l-19 -23 23 19 c21 18 27 26 19 26 -2 0 -12 -10 -23 -22z"/>
<path d="M1575 2101 c-6 -5 -19 -11 -30 -14 -19 -4 -19 -5 1 -6 12 0 27 6 34
14 14 16 10 20 -5 6z"/>
<path d="M1496 2012 c-22 -27 -24 -32 -7 -17 20 17 47 55 39 55 -2 0 -16 -17
-32 -38z"/>
<path d="M1139 2013 c-13 -16 -12 -17 4 -4 9 7 17 15 17 17 0 8 -8 3 -21 -13z"/>
<path d="M1438 1973 c7 -3 16 -2 19 1 4 3 -2 6 -13 5 -11 0 -14 -3 -6 -6z"/>
<path d="M1085 1929 c-9 -17 -15 -33 -13 -35 3 -2 12 12 21 31 21 43 13 47 -8
4z"/>
<path d="M1411 1924 c0 -11 3 -14 6 -6 3 7 2 16 -1 19 -3 4 -6 -2 -5 -13z"/>
<path d="M1400 1888 c0 -9 -17 -13 -55 -12 -31 0 -50 -3 -44 -7 6 -3 32 -5 58
-4 32 2 47 8 49 19 2 9 1 16 -2 16 -3 0 -6 -6 -6 -12z"/>
<path d="M1367 1840 c3 -11 12 -20 19 -20 11 0 10 5 -3 20 -10 11 -18 20 -19
20 -1 0 0 -9 3 -20z"/>
<path d="M1036 1815 c-9 -26 -7 -32 5 -12 6 10 9 21 6 23 -2 3 -7 -2 -11 -11z"/>
<path d="M1750 1761 c0 -6 5 -13 12 -17 6 -4 8 -3 4 4 -3 6 2 13 11 15 14 4
13 5 -4 6 -13 0 -23 -3 -23 -8z"/>
<path d="M1850 1760 c0 -5 5 -10 10 -10 6 0 10 5 10 10 0 6 -4 10 -10 10 -5 0
-10 -4 -10 -10z"/>
<path d="M1006 1745 c-3 -9 -6 -22 -5 -28 0 -7 5 -1 10 12 5 13 8 26 5 28 -2
2 -6 -3 -10 -12z"/>
<path d="M1341 1744 c7 -8 6 -14 -3 -17 -7 -3 1 -4 19 -4 24 2 29 5 23 16 -4
8 -17 15 -29 16 -15 1 -18 -2 -10 -11z"/>
<path d="M1514 1698 l-19 -23 23 19 c21 18 27 26 19 26 -2 0 -12 -10 -23 -22z"/>
<path d="M1711 1708 c-1 -10 3 -18 8 -18 5 0 15 8 22 18 13 15 12 16 -3 4 -13
-10 -17 -10 -21 0 -4 8 -6 7 -6 -4z"/>
<path d="M1298 1703 c7 -3 16 -2 19 1 4 3 -2 6 -13 5 -11 0 -14 -3 -6 -6z"/>
<path d="M1204 1668 l-19 -23 23 19 c21 18 27 26 19 26 -2 0 -12 -10 -23 -22z"/>
<path d="M1754 1663 c1 -19 5 -28 10 -23 6 6 5 18 -1 32 -10 21 -10 21 -9 -9z"/>
<path d="M981 1654 c0 -11 3 -14 6 -6 3 7 2 16 -1 19 -3 4 -6 -2 -5 -13z"/>
<path d="M1428 1663 c6 -2 18 -2 25 0 6 3 1 5 -13 5 -14 0 -19 -2 -12 -5z"/>
<path d="M971 1614 c0 -11 3 -14 6 -6 3 7 2 16 -1 19 -3 4 -6 -2 -5 -13z"/>
<path d="M1730 1590 c-12 -16 -28 -30 -35 -30 -8 0 -17 -4 -20 -10 -4 -6 2 -7
16 -1 21 7 79 71 66 71 -3 0 -15 -13 -27 -30z"/>
<path d="M961 1564 c0 -11 3 -14 6 -6 3 7 2 16 -1 19 -3 4 -6 -2 -5 -13z"/>
<path d="M1172 1550 c0 -14 2 -19 5 -12 2 6 2 18 0 25 -3 6 -5 1 -5 -13z"/>
<path d="M1553 1545 c-3 -11 -13 -26 -22 -33 -14 -11 -13 -12 6 -3 29 14 33
14 33 -4 0 -8 5 -15 11 -15 7 0 5 10 -5 25 -21 32 -20 35 9 35 14 0 25 3 25 8
0 4 -11 7 -25 7 -16 0 -27 -7 -32 -20z"/>
<path d="M1220 1523 c6 -13 18 -23 28 -22 14 0 14 2 2 6 -8 4 -21 13 -28 22
-11 14 -11 13 -2 -6z"/>
<path d="M952 1510 c0 -14 2 -19 5 -12 2 6 2 18 0 25 -3 6 -5 1 -5 -13z"/>
<path d="M1704 1512 c3 -6 -2 -13 -11 -15 -16 -4 -16 -5 -1 -6 21 -1 32 15 17
25 -7 4 -9 3 -5 -4z"/>
<path d="M1270 1490 c-8 -5 -12 -12 -9 -15 4 -3 12 1 19 10 14 17 11 19 -10 5z"/>
<path d="M942 1460 c0 -14 2 -19 5 -12 2 6 2 18 0 25 -3 6 -5 1 -5 -13z"/>
<path d="M1587 1461 c9 -35 -16 -101 -43 -111 -29 -11 -32 -20 -4 -13 11 3 27
15 35 26 13 18 15 19 15 4 0 -10 8 -17 18 -17 12 0 14 2 4 8 -15 10 -5 45 12
39 6 -2 10 -12 9 -22 -1 -12 2 -14 10 -6 8 8 6 16 -7 29 -16 16 -18 16 -32 -3
-14 -19 -15 -17 -9 26 4 28 3 49 -3 53 -6 3 -8 -2 -5 -13z"/>
<path d="M932 1405 c0 -16 2 -22 5 -12 2 9 2 23 0 30 -3 6 -5 -1 -5 -18z"/>
<path d="M1470 1375 c0 -6 9 -18 20 -28 18 -15 22 -13 19 11 -1 4 -6 6 -12 4
-5 -2 -14 3 -18 10 -5 7 -9 8 -9 3z"/>
<path d="M1411 1355 c0 -11 6 -29 14 -39 8 -11 15 -15 15 -10 0 6 -4 14 -9 20
-5 5 -11 18 -14 29 l-5 20 -1 -20z"/>
<path d="M922 1330 c0 -19 2 -27 5 -17 2 9 2 25 0 35 -3 9 -5 1 -5 -18z"/>
<path d="M1705 1330 c3 -5 8 -10 11 -10 2 0 4 5 4 10 0 6 -5 10 -11 10 -5 0
-7 -4 -4 -10z"/>
<path d="M1550 1322 c0 -5 7 -9 15 -9 8 0 15 4 15 9 0 4 -7 8 -15 8 -8 0 -15
-4 -15 -8z"/>
<path d="M1669 1302 c-3 -20 -2 -29 4 -23 5 5 7 19 5 32 -3 20 -5 19 -9 -9z"/>
<path d="M1500 1306 c0 -2 7 -7 16 -10 8 -3 12 -2 9 4 -6 10 -25 14 -25 6z"/>
<path d="M1377 1282 c-10 -10 -17 -23 -17 -28 0 -5 5 -1 11 9 6 10 20 22 32
27 15 6 17 9 6 9 -9 1 -23 -7 -32 -17z"/>
<path d="M1480 1287 c0 -10 8 -17 18 -17 9 0 13 4 7 8 -5 4 -13 11 -17 16 -5
5 -8 2 -8 -7z"/>
<path d="M1726 1285 c-11 -8 -15 -15 -9 -15 6 0 16 7 23 15 16 19 11 19 -14 0z"/>
<path d="M912 1260 c0 -14 2 -19 5 -12 2 6 2 18 0 25 -3 6 -5 1 -5 -13z"/>
<path d="M1628 1253 c7 -3 16 -2 19 1 4 3 -2 6 -13 5 -11 0 -14 -3 -6 -6z"/>
<path d="M1351 1224 c0 -11 3 -14 6 -6 3 7 2 16 -1 19 -3 4 -6 -2 -5 -13z"/>
<path d="M901 1214 c0 -11 3 -14 6 -6 3 7 2 16 -1 19 -3 4 -6 -2 -5 -13z"/>
<path d="M1576 1208 c3 -4 -1 -8 -9 -8 -7 0 -24 -12 -38 -27 l-24 -28 26 23
c14 12 30 22 36 22 6 0 16 6 22 13 8 10 7 14 -4 14 -8 0 -12 -4 -9 -9z"/>
<path d="M1660 1200 c0 -5 5 -10 10 -10 6 0 10 5 10 10 0 6 -4 10 -10 10 -5 0
-10 -4 -10 -10z"/>
<path d="M1342 1170 c0 -8 4 -26 8 -40 6 -20 8 -21 8 -5 0 11 -3 29 -8 40 -5
12 -8 14 -8 5z"/>
<path d="M1630 1171 c13 -10 13 -12 0 -22 -13 -9 -13 -10 0 -6 8 2 15 10 15
17 0 7 -7 15 -15 17 -13 4 -13 3 0 -6z"/>
<path d="M1590 1161 c0 -6 4 -12 8 -15 5 -3 9 1 9 9 0 8 -4 15 -9 15 -4 0 -8
-4 -8 -9z"/>
<path d="M1700 1160 c12 -10 11 -11 -8 -7 -12 3 -20 1 -16 -4 8 -13 46 -11 42
3 -2 6 -11 13 -19 16 -11 3 -11 1 1 -8z"/>
<path d="M1465 1120 c-3 -5 -1 -10 4 -10 6 0 11 5 11 10 0 6 -2 10 -4 10 -3 0
-8 -4 -11 -10z"/>
<path d="M1520 1110 c-6 -11 -8 -20 -6 -20 3 0 10 9 16 20 6 11 8 20 6 20 -3
0 -10 -9 -16 -20z"/>
<path d="M1661 1093 c-1 -17 19 -27 31 -15 6 6 6 12 -3 17 -8 5 -10 4 -5 -3 4
-7 3 -12 -3 -12 -5 0 -12 6 -14 13 -4 9 -6 9 -6 0z"/>
<path d="M1576 1073 c-6 -14 -5 -15 5 -6 7 7 10 15 7 18 -3 3 -9 -2 -12 -12z"/>
<path d="M1620 1080 c0 -5 5 -10 10 -10 6 0 10 5 10 10 0 6 -4 10 -10 10 -5 0
-10 -4 -10 -10z"/>
<path d="M1310 1048 c-10 -18 -17 -34 -15 -37 6 -5 4 -7 27 37 22 41 14 42
-12 0z"/>
<path d="M1464 1059 c-10 -12 -32 -30 -49 -40 -16 -11 -24 -19 -17 -19 12 0
103 79 91 80 -3 0 -14 -10 -25 -21z"/>
<path d="M814 1048 l-19 -23 23 19 c21 18 27 26 19 26 -2 0 -12 -10 -23 -22z"/>
<path d="M1507 1050 c3 -11 9 -22 13 -25 5 -3 6 4 3 15 -3 11 -9 22 -13 25 -5
3 -6 -4 -3 -15z"/>
<path d="M1570 1030 c0 -5 5 -10 10 -10 6 0 10 5 10 10 0 6 -4 10 -10 10 -5 0
-10 -4 -10 -10z"/>
<path d="M1996 1022 c-3 -4 4 -9 15 -9 23 -2 25 3 4 10 -8 4 -16 3 -19 -1z"/>
<path d="M1875 990 c-3 -6 1 -7 9 -4 18 7 21 14 7 14 -6 0 -13 -4 -16 -10z"/>
<path d="M1315 980 c-13 -6 -15 -9 -5 -9 8 0 22 4 30 9 18 12 2 12 -25 0z"/>
<path d="M1516 973 c-6 -14 -5 -15 5 -6 7 7 10 15 7 18 -3 3 -9 -2 -12 -12z"/>
<path d="M2052 974 c-7 -8 -8 -14 -3 -14 10 0 25 19 20 25 -2 1 -10 -3 -17
-11z"/>
<path d="M1920 966 c4 -4 16 -4 26 2 16 9 14 10 -8 9 -15 -1 -23 -6 -18 -11z"/>
<path d="M709 943 l-24 -28 28 24 c15 14 27 26 27 28 0 8 -8 1 -31 -24z"/>
<path d="M1376 948 c12 -20 24 -28 43 -27 25 2 25 2 2 6 -13 3 -33 15 -43 26
-19 22 -19 22 -2 -5z"/>
<path d="M1840 950 c-6 -11 -9 -20 -8 -20 2 0 11 9 21 20 9 11 13 20 7 20 -5
0 -14 -9 -20 -20z"/>
<path d="M1460 945 c-19 -22 -8 -25 13 -3 9 10 13 18 8 18 -5 0 -14 -7 -21
-15z"/>
<path d="M2090 956 c0 -2 7 -7 16 -10 8 -3 12 -2 9 4 -6 10 -25 14 -25 6z"/>
<path d="M1506 927 c3 -10 9 -15 12 -12 3 3 0 11 -7 18 -10 9 -11 8 -5 -6z"/>
<path d="M2383 923 c9 -2 15 -9 11 -14 -3 -6 0 -16 6 -24 7 -8 9 -23 6 -32 -6
-15 -5 -16 6 -5 10 10 10 16 0 33 -9 14 -10 24 -3 33 7 9 3 12 -17 13 -15 0
-19 -1 -9 -4z"/>
<path d="M654 898 l-19 -23 23 19 c21 18 27 26 19 26 -2 0 -12 -10 -23 -22z"/>
<path d="M2197 873 c6 -27 25 -30 44 -5 13 15 12 16 -4 3 -15 -12 -19 -12 -32
5 -13 18 -14 18 -8 -3z"/>
<path d="M1776 865 c-9 -26 -7 -32 5 -12 6 10 9 21 6 23 -2 3 -7 -2 -11 -11z"/>
<path d="M2090 868 c0 -7 10 -14 21 -15 12 -1 20 -1 18 0 -2 2 -12 9 -21 16
-15 11 -18 11 -18 -1z"/>
<path d="M1501 828 c-1 -9 -8 -24 -17 -32 -8 -9 -11 -16 -5 -16 14 0 34 38 27
53 -2 7 -5 5 -5 -5z"/>
<path d="M2230 820 c0 -11 -7 -20 -15 -20 -8 0 -15 -5 -15 -10 0 -7 6 -7 20 0
17 9 29 50 15 50 -3 0 -5 -9 -5 -20z"/>
<path d="M1750 810 c-6 -11 -8 -20 -6 -20 3 0 10 9 16 20 6 11 8 20 6 20 -3 0
-10 -9 -16 -20z"/>
<path d="M2418 813 c6 -2 18 -2 25 0 6 3 1 5 -13 5 -14 0 -19 -2 -12 -5z"/>
<path d="M489 783 c-13 -16 -12 -17 4 -4 9 7 17 15 17 17 0 8 -8 3 -21 -13z"/>
<path d="M1376 749 c-14 -17 -26 -38 -25 -47 0 -11 4 -8 10 8 6 14 20 35 31
47 12 13 19 23 16 23 -4 0 -18 -14 -32 -31z"/>
<path d="M2448 773 c7 -3 16 -2 19 1 4 3 -2 6 -13 5 -11 0 -14 -3 -6 -6z"/>
<path d="M2481 766 c-9 -10 -9 -16 -1 -21 6 -4 14 -4 17 -1 4 3 1 6 -7 6 -10
0 -10 3 0 15 7 8 10 15 7 15 -2 0 -10 -6 -16 -14z"/>
<path d="M2641 764 c0 -11 3 -14 6 -6 3 7 2 16 -1 19 -3 4 -6 -2 -5 -13z"/>
<path d="M419 733 c-13 -16 -12 -17 4 -4 16 13 21 21 13 21 -2 0 -10 -8 -17
-17z"/>
<path d="M1553 716 c0 -19 2 -22 12 -13 7 7 10 18 8 24 -8 21 -20 14 -20 -11z"/>
<path d="M1505 711 c-8 -27 11 -54 21 -28 3 9 1 24 -4 33 -9 16 -10 15 -17 -5z
m12 -23 c-3 -8 -6 -5 -6 6 -1 11 2 17 5 13 3 -3 4 -12 1 -19z"/>
<path d="M1919 713 c-13 -17 -13 -17 6 -3 11 8 22 16 24 17 2 2 0 3 -6 3 -6 0
-17 -8 -24 -17z"/>
<path d="M379 703 c-13 -16 -12 -17 4 -4 9 7 17 15 17 17 0 8 -8 3 -21 -13z"/>
<path d="M1970 700 c6 -11 13 -20 16 -20 2 0 0 9 -6 20 -6 11 -13 20 -16 20
-2 0 0 -9 6 -20z"/>
<path d="M1670 695 c-7 -9 -11 -17 -9 -20 3 -2 10 5 17 15 14 24 10 26 -8 5z"/>
<path d="M2655 700 c-3 -6 1 -7 9 -4 18 7 21 14 7 14 -6 0 -13 -4 -16 -10z"/>
<path d="M2020 678 c11 -12 21 -33 21 -47 2 -23 2 -23 6 -4 4 23 -22 73 -39
73 -5 0 0 -10 12 -22z"/>
<path d="M290 639 c-36 -28 -72 -57 -80 -66 -8 -9 22 12 68 46 45 34 82 64 82
66 0 8 -1 7 -70 -46z"/>
<path d="M1449 673 c-13 -16 -12 -17 4 -4 16 13 21 21 13 21 -2 0 -10 -8 -17
-17z"/>
<path d="M1629 663 c-13 -16 -12 -17 4 -4 16 13 21 21 13 21 -2 0 -10 -8 -17
-17z"/>
<path d="M1865 660 c-15 -17 -16 -22 -5 -36 12 -13 11 -17 -1 -25 -9 -5 -10
-9 -2 -9 18 0 27 20 14 33 -16 16 -13 27 11 36 12 4 17 11 11 14 -6 4 -18 -2
-28 -13z"/>
<path d="M1350 656 c0 -2 7 -7 16 -10 8 -3 12 -2 9 4 -6 10 -25 14 -25 6z"/>
<path d="M2426 647 c3 -10 9 -15 12 -12 3 3 0 11 -7 18 -10 9 -11 8 -5 -6z"/>
<path d="M1400 640 c8 -5 20 -10 25 -10 6 0 3 5 -5 10 -8 5 -19 10 -25 10 -5
0 -3 -5 5 -10z"/>
<path d="M1506 636 c3 -9 16 -16 28 -15 14 0 16 2 6 6 -8 3 -21 10 -28 16 -9
7 -11 6 -6 -7z"/>
<path d="M2645 640 c3 -5 11 -10 16 -10 6 0 7 5 4 10 -3 6 -11 10 -16 10 -6 0
-7 -4 -4 -10z"/>
<path d="M2683 625 c0 -8 4 -12 9 -9 5 3 6 10 3 15 -9 13 -12 11 -12 -6z"/>
<path d="M2315 619 c-4 -6 -5 -12 -2 -15 2 -3 7 2 10 11 7 17 1 20 -8 4z"/>
<path d="M1528 593 c6 -2 18 -2 25 0 6 3 1 5 -13 5 -14 0 -19 -2 -12 -5z"/>
<path d="M2050 596 c0 -2 8 -10 18 -17 15 -13 16 -12 3 4 -13 16 -21 21 -21
13z"/>
<path d="M2345 570 c-3 -11 -11 -20 -17 -20 -6 0 -8 -3 -4 -7 4 -4 16 3 27 17
14 17 22 21 26 13 2 -7 9 -13 15 -13 6 0 6 6 -2 15 -17 21 -37 19 -45 -5z"/>
<path d="M2701 578 c-1 -10 -8 -18 -16 -18 -9 0 -12 -6 -8 -15 5 -13 8 -13 20
5 8 11 12 26 10 33 -3 7 -6 5 -6 -5z"/>
<path d="M2422 566 c7 -8 15 -12 17 -11 5 6 -10 25 -20 25 -5 0 -4 -6 3 -14z"/>
<path d="M2451 564 c0 -11 3 -14 6 -6 3 7 2 16 -1 19 -3 4 -6 -2 -5 -13z"/>
<path d="M1810 562 c0 -4 9 -15 20 -25 11 -9 20 -13 20 -9 0 4 -9 15 -20 25
-11 9 -20 13 -20 9z"/>
<path d="M1950 561 c0 -6 4 -13 10 -16 6 -3 7 1 4 9 -7 18 -14 21 -14 7z"/>
<path d="M90 463 l-95 -98 98 95 c53 52 97 96 97 97 0 8 -12 -4 -100 -94z"/>
<path d="M1361 543 c0 -12 -10 -27 -22 -33 -16 -9 -18 -14 -9 -26 7 -7 9 -22
6 -31 -6 -15 -5 -16 6 -5 9 9 10 17 2 29 -8 14 -6 21 9 33 12 10 17 24 14 35
-4 18 -5 18 -6 -2z"/>
<path d="M2128 553 c7 -3 16 -2 19 1 4 3 -2 6 -13 5 -11 0 -14 -3 -6 -6z"/>
<path d="M1988 543 c7 -3 16 -2 19 1 4 3 -2 6 -13 5 -11 0 -14 -3 -6 -6z"/>
<path d="M2020 543 c0 -1 8 -6 18 -12 11 -6 21 -5 29 4 8 9 5 12 -18 11 -16
-1 -29 -2 -29 -3z"/>
<path d="M1860 536 c0 -2 8 -10 18 -17 15 -13 16 -12 3 4 -13 16 -21 21 -21
13z"/>
<path d="M1926 523 c-6 -14 -5 -15 5 -6 7 7 10 15 7 18 -3 3 -9 -2 -12 -12z"/>
<path d="M2296 523 c-6 -14 -5 -15 5 -6 7 7 10 15 7 18 -3 3 -9 -2 -12 -12z"/>
<path d="M2440 531 c0 -5 -8 -12 -17 -14 -14 -4 -13 -5 4 -6 24 -1 39 14 23
24 -5 3 -10 2 -10 -4z"/>
<path d="M1438 523 c7 -3 16 -2 19 1 4 3 -2 6 -13 5 -11 0 -14 -3 -6 -6z"/>
<path d="M2701 518 c-1 -9 -9 -22 -18 -27 -10 -6 -13 -11 -7 -11 17 0 37 27
31 42 -4 8 -6 7 -6 -4z"/>
<path d="M1995 510 c-3 -6 1 -7 9 -4 18 7 21 14 7 14 -6 0 -13 -4 -16 -10z"/>
<path d="M2035 500 c4 -6 11 -8 16 -5 14 9 11 15 -7 15 -8 0 -12 -5 -9 -10z"/>
<path d="M2255 500 c-4 -6 3 -10 14 -10 25 0 27 6 6 13 -8 4 -17 2 -20 -3z"/>
<path d="M2317 499 c7 -7 15 -10 18 -7 3 3 -2 9 -12 12 -14 6 -15 5 -6 -5z"/>
<path d="M2561 502 c-1 -8 -6 -10 -13 -6 -10 5 -10 4 -1 -6 15 -16 28 -8 20
12 -4 11 -6 11 -6 0z"/>
<path d="M1960 454 c-17 -20 -36 -47 -42 -60 -6 -13 -15 -21 -21 -17 -6 4 -8
-2 -5 -15 4 -12 3 -22 -2 -22 -4 0 -11 -10 -14 -22 -7 -21 -9 -20 -26 17 -20
44 -26 43 -9 -2 6 -15 13 -43 15 -62 4 -29 3 -32 -11 -21 -9 8 -13 21 -9 36 6
22 4 24 -32 22 -38 -1 -38 -1 -6 -5 26 -4 32 -8 27 -22 -3 -10 1 -24 10 -31
19 -16 11 -30 -14 -23 -10 3 -21 1 -24 -4 -8 -12 10 -39 20 -30 4 5 1 12 -7
17 -9 6 -10 10 -3 10 6 0 15 -5 18 -11 5 -6 11 -4 19 7 11 15 13 13 14 -15 0
-17 -4 -31 -9 -31 -6 0 -7 5 -4 10 3 5 2 10 -2 10 -15 0 -33 -23 -33 -42 0 -9
-9 -22 -21 -29 -21 -11 -21 -11 -1 -24 10 -8 31 -12 45 -10 14 3 29 0 33 -6 4
-7 3 -9 -3 -6 -5 3 -10 0 -10 -7 0 -8 6 -12 14 -9 9 4 13 -4 13 -27 0 -25 4
-31 18 -28 13 3 17 13 17 45 0 22 -3 39 -8 36 -4 -2 -6 13 -4 34 3 21 2 30 0
21 -5 -21 -12 -22 -33 -7 -13 9 -12 10 3 5 13 -4 17 0 17 19 0 13 5 27 12 31
6 4 8 3 5 -3 -3 -5 0 -10 8 -10 20 0 19 7 -2 23 -15 10 -16 15 -5 25 6 7 12
17 12 23 0 5 -7 1 -15 -10 -14 -18 -14 -17 -15 15 0 25 -4 32 -15 27 -19 -7
-19 1 -1 19 7 8 16 11 20 8 3 -4 6 2 6 13 1 30 34 97 70 137 18 20 30 37 27
37 -3 0 -19 -16 -37 -36z m-83 -221 c-3 -10 -5 -4 -5 12 0 17 2 24 5 18 2 -7
2 -21 0 -30z m0 -70 c-3 -10 -5 -4 -5 12 0 17 2 24 5 18 2 -7 2 -21 0 -30z
m-27 -28 c0 -14 5 -25 10 -25 6 0 10 -4 10 -8 0 -4 -9 -8 -19 -8 -11 0 -17 4
-15 8 8 12 -11 9 -24 -4 -9 -9 -12 -9 -12 0 0 7 5 12 10 12 6 0 10 8 10 18 0
10 3 22 7 25 13 14 23 6 23 -18z m56 -102 c1 -13 -2 -23 -8 -23 -5 0 -7 9 -3
19 3 11 1 22 -5 26 -5 3 -10 14 -10 23 1 15 2 14 12 -2 6 -11 12 -30 14 -43z"/>
<path d="M2383 451 c20 -24 39 -55 42 -70 6 -30 -19 -91 -38 -91 -7 0 -6 -4 3
-10 8 -5 11 -12 7 -16 -3 -4 -15 -1 -24 7 -17 12 -17 12 -1 -5 17 -19 43 -13
35 8 -3 6 0 19 7 27 10 14 14 14 41 -4 l30 -19 -35 6 c-33 5 -33 5 -12 -7 12
-7 20 -16 17 -19 -3 -3 3 -11 12 -19 16 -12 17 -12 5 2 -10 13 -9 19 3 29 18
15 3 40 -24 40 -13 1 -13 3 3 15 11 8 15 15 10 15 -6 0 -15 -5 -20 -10 -7 -7
-10 6 -9 40 1 27 -2 50 -7 50 -4 0 -24 17 -44 38 l-36 37 35 -44z"/>
<path d="M1275 470 c3 -5 8 -10 11 -10 2 0 4 5 4 10 0 6 -5 10 -11 10 -5 0 -7
-4 -4 -10z"/>
<path d="M1730 470 c0 -5 7 -7 15 -4 8 4 15 8 15 10 0 2 -7 4 -15 4 -8 0 -15
-4 -15 -10z"/>
<path d="M2030 470 c-13 -8 -13 -11 0 -24 11 -11 19 -12 30 -5 13 9 13 10 -2
6 -22 -7 -30 3 -17 20 13 15 10 16 -11 3z"/>
<path d="M2220 470 c0 -5 7 -7 15 -4 8 4 15 8 15 10 0 2 -7 4 -15 4 -8 0 -15
-4 -15 -10z"/>
<path d="M1920 440 c-6 -11 -8 -20 -6 -20 3 0 10 9 16 20 6 11 8 20 6 20 -3 0
-10 -9 -16 -20z"/>
<path d="M2445 450 c-16 -7 -17 -9 -3 -9 9 -1 20 4 23 9 7 11 7 11 -20 0z"/>
<path d="M2501 440 c14 -31 19 -36 19 -24 0 6 -7 19 -16 30 -14 18 -14 18 -3
-6z"/>
<path d="M1151 437 c-8 -11 -5 -16 17 -26 25 -11 26 -10 7 4 -17 14 -18 17 -5
25 8 5 10 10 4 10 -6 0 -17 -6 -23 -13z"/>
<path d="M2746 423 c-6 -14 -5 -15 5 -6 7 7 10 15 7 18 -3 3 -9 -2 -12 -12z"/>
<path d="M1237 418 c2 -5 10 -8 18 -8 8 0 16 3 18 8 3 4 -5 7 -18 7 -13 0 -21
-3 -18 -7z"/>
<path d="M2170 409 c0 -5 5 -7 10 -4 6 3 10 8 10 11 0 2 -4 4 -10 4 -5 0 -10
-5 -10 -11z"/>
<path d="M1155 380 c10 -11 20 -20 23 -20 3 0 -3 9 -13 20 -10 11 -20 20 -23
20 -3 0 3 -9 13 -20z"/>
<path d="M2674 388 c-11 -17 6 -22 22 -7 13 14 13 16 -1 16 -9 0 -18 -4 -21
-9z"/>
<path d="M1212 355 c0 -16 2 -22 5 -12 2 9 2 23 0 30 -3 6 -5 -1 -5 -18z"/>
<path d="M1692 343 c-2 -39 -4 -43 -29 -44 -23 -1 -24 -2 -6 -6 12 -2 32 1 43
7 17 9 25 8 39 -4 10 -9 21 -16 26 -16 4 0 -4 9 -19 21 -14 11 -30 18 -35 14
-6 -3 -12 12 -14 32 l-4 38 -1 -42z"/>
<path d="M1860 369 c0 -5 5 -7 10 -4 6 3 10 8 10 11 0 2 -4 4 -10 4 -5 0 -10
-5 -10 -11z"/>
<path d="M2499 363 c-13 -16 -12 -17 4 -4 16 13 21 21 13 21 -2 0 -10 -8 -17
-17z"/>
<path d="M1570 350 c-8 -5 -22 -7 -31 -5 -9 3 -22 -2 -30 -12 -12 -15 -12 -16
1 -7 8 5 26 10 40 11 44 5 49 6 44 15 -6 10 -6 10 -24 -2z"/>
<path d="M2785 320 c-16 -7 -17 -9 -3 -9 9 -1 20 4 23 9 7 11 7 11 -20 0z"/>
<path d="M1228 294 c3 -15 -3 -33 -14 -47 l-19 -22 23 19 c22 19 30 60 13 70
-4 3 -6 -6 -3 -20z"/>
<path d="M1450 295 c-10 -12 -16 -13 -27 -4 -7 7 -16 10 -18 7 -3 -3 1 -11 10
-18 13 -10 18 -10 33 3 9 8 28 17 42 20 l25 4 -26 2 c-15 0 -32 -6 -39 -14z"/>
<path d="M1936 302 c-3 -5 1 -9 9 -9 8 0 15 4 15 9 0 4 -4 8 -9 8 -6 0 -12 -4
-15 -8z"/>
<path d="M2692 284 c-7 -8 -8 -14 -3 -14 10 0 25 19 20 25 -2 1 -10 -3 -17
-11z"/>
<path d="M2726 282 c-3 -5 1 -9 9 -9 8 0 12 4 9 9 -3 4 -7 8 -9 8 -2 0 -6 -4
-9 -8z"/>
<path d="M1490 270 c0 -5 5 -10 11 -10 5 0 7 5 4 10 -3 6 -8 10 -11 10 -2 0
-4 -4 -4 -10z"/>
<path d="M2631 254 c0 -11 3 -14 6 -6 3 7 2 16 -1 19 -3 4 -6 -2 -5 -13z"/>
<path d="M2415 249 c-4 -6 -5 -13 -2 -16 7 -7 27 6 27 18 0 12 -17 12 -25 -2z"/>
<path d="M2550 256 c0 -2 11 -6 25 -8 13 -3 22 -1 19 3 -5 9 -44 13 -44 5z"/>
<path d="M2502 228 c16 -10 45 -10 51 0 3 4 -10 7 -29 8 -21 0 -30 -3 -22 -8z"/>
<path d="M2435 220 c-3 -6 1 -7 9 -4 18 7 21 14 7 14 -6 0 -13 -4 -16 -10z"/>
<path d="M1120 216 c0 -2 7 -7 16 -10 8 -3 12 -2 9 4 -6 10 -25 14 -25 6z"/>
<path d="M1206 190 c7 -8 14 -24 16 -35 2 -13 6 -16 11 -8 4 6 -2 22 -15 35
-13 13 -18 17 -12 8z"/>
<path d="M2370 195 c0 -8 8 -15 18 -15 13 0 14 2 3 9 -11 7 -11 9 0 14 10 4 9
6 -3 6 -10 1 -18 -6 -18 -14z"/>
<path d="M2501 197 c-1 -22 25 -33 43 -18 7 6 16 8 19 4 4 -3 7 -1 7 5 0 18
-17 23 -24 7 -8 -21 -34 -19 -39 3 -4 16 -5 16 -6 -1z"/>
<path d="M2690 200 c0 -5 5 -10 10 -10 6 0 10 5 10 10 0 6 -4 10 -10 10 -5 0
-10 -4 -10 -10z"/>
<path d="M816 183 c-6 -14 -5 -15 5 -6 7 7 10 15 7 18 -3 3 -9 -2 -12 -12z"/>
<path d="M2425 191 c-3 -5 -2 -12 3 -15 5 -3 9 1 9 9 0 17 -3 19 -12 6z"/>
<path d="M2470 190 c0 -5 5 -10 10 -10 6 0 10 5 10 10 0 6 -4 10 -10 10 -5 0
-10 -4 -10 -10z"/>
<path d="M848 173 c7 -3 16 -2 19 1 4 3 -2 6 -13 5 -11 0 -14 -3 -6 -6z"/>
<path d="M81 143 c7 -12 15 -20 18 -17 3 2 -3 12 -13 22 -17 16 -18 16 -5 -5z"/>
<path d="M1113 143 c-4 -10 -1 -19 6 -21 9 -3 7 -10 -6 -25 -12 -15 -13 -18
-2 -9 9 6 20 8 24 4 5 -4 4 -1 0 7 -6 11 -4 13 11 8 16 -6 15 -3 -4 13 -13 11
-21 24 -17 30 3 5 4 10 0 10 -3 0 -9 -8 -12 -17z"/>
<path d="M750 140 c-11 -7 -5 -8 20 -4 43 8 51 14 19 14 -13 0 -31 -5 -39 -10z"/>
<path d="M1735 114 c-9 -14 -15 -15 -33 -5 -20 10 -27 9 -53 -13 -17 -14 -27
-26 -23 -26 4 0 18 9 30 21 19 18 25 19 43 7 12 -7 21 -19 21 -27 0 -11 5 -10
20 4 19 18 28 55 12 55 -4 0 -12 -7 -17 -16z m15 -18 c0 -3 -4 -8 -10 -11 -5
-3 -10 -1 -10 4 0 6 5 11 10 11 6 0 10 -2 10 -4z"/>
<path d="M6 98 c3 -5 10 -6 15 -3 13 9 11 12 -6 12 -8 0 -12 -4 -9 -9z"/>
<path d="M47 99 c7 -7 15 -10 18 -7 3 3 -2 9 -12 12 -14 6 -15 5 -6 -5z"/>
<path d="M835 89 c-4 -6 -5 -12 -2 -15 2 -3 7 2 10 11 7 17 1 20 -8 4z"/>
<path d="M1170 94 c0 -5 5 -15 12 -22 10 -10 7 -17 -11 -35 -19 -17 -23 -18
-18 -4 9 24 2 21 -16 -7 -25 -37 2 -27 55 19 24 22 36 34 27 27 -15 -11 -19
-10 -33 10 -9 12 -16 18 -16 12z"/>
<path d="M1109 63 c-13 -16 -12 -17 4 -4 9 7 17 15 17 17 0 8 -8 3 -21 -13z"/>
<path d="M1139 63 c-13 -16 -12 -17 4 -4 9 7 17 15 17 17 0 8 -8 3 -21 -13z"/>
<path d="M751 54 c0 -11 3 -14 6 -6 3 7 2 16 -1 19 -3 4 -6 -2 -5 -13z"/>
<path d="M785 49 c-4 -6 -4 -13 -1 -16 3 -4 6 -1 6 6 0 8 8 11 20 8 11 -3 20
-1 20 4 0 13 -37 11 -45 -2z"/>
<path d="M1731 45 c1 -22 16 -48 22 -38 3 5 0 19 -8 29 -8 10 -14 15 -14 9z"/>
<path d="M1930 41 c0 -6 4 -13 10 -16 6 -3 7 1 4 9 -7 18 -14 21 -14 7z"/>
<path d="M970 28 c0 -9 7 -19 16 -22 15 -6 15 -4 3 11 -7 10 -15 20 -16 22 -2
2 -3 -3 -3 -11z"/>
<path d="M1844 20 c0 -9 5 -17 11 -17 6 0 11 8 11 17 0 9 -5 17 -11 17 -6 0
-11 -8 -11 -17z"/>
<path d="M259 13 c-13 -16 -12 -17 4 -4 16 13 21 21 13 21 -2 0 -10 -8 -17
-17z"/>
<path d="M590 21 c0 -6 4 -13 10 -16 6 -3 7 1 4 9 -7 18 -14 21 -14 7z"/>
<path d="M510 10 c-9 -6 -10 -10 -3 -10 6 0 15 5 18 10 8 12 4 12 -15 0z"/>
</g>
</svg>
